<svg version="1.1" viewBox="0.0 0.0 960.0 720.0" fill="none" stroke="none" stroke-linecap="square" stroke-miterlimit="10" xmlns:xlink="http://www.w3.org/1999/xlink" xmlns="http://www.w3.org/2000/svg"><clipPath id="p.0"><path d="m0 0l960.0 0l0 720.0l-960.0 0l0 -720.0z" clip-rule="nonzero"/></clipPath><g clip-path="url(#p.0)"><path fill="#000000" fill-opacity="0.0" d="m0 0l960.0 0l0 720.0l-960.0 0z" fill-rule="evenodd"/><path fill="#cfe2f3" d="m274.27036 93.74613l0 0c0 -20.045006 16.249664 -36.29469 36.294678 -36.29469l149.80432 0l0 0c9.625946 0 18.857635 3.8238945 25.664215 10.630466c6.8065796 6.8065796 10.630463 16.038277 10.630463 25.664223l0 145.17441c0 20.045013 -16.249664 36.294678 -36.294678 36.294678l-149.80432 0c-20.045013 0 -36.294678 -16.249664 -36.294678 -36.294678z" fill-rule="evenodd"/><path stroke="#000000" stroke-width="1.0" stroke-linejoin="round" stroke-linecap="butt" d="m274.27036 93.74613l0 0c0 -20.045006 16.249664 -36.29469 36.294678 -36.29469l149.80432 0l0 0c9.625946 0 18.857635 3.8238945 25.664215 10.630466c6.8065796 6.8065796 10.630463 16.038277 10.630463 25.664223l0 145.17441c0 20.045013 -16.249664 36.294678 -36.294678 36.294678l-149.80432 0c-20.045013 0 -36.294678 -16.249664 -36.294678 -36.294678z" fill-rule="evenodd"/><path fill="#3c78d8" d="m315.98425 128.75853l138.99213 0l0 50.04724l-138.99213 0z" fill-rule="evenodd"/><path stroke="#000000" stroke-width="1.0" stroke-linejoin="round" stroke-linecap="butt" d="m315.98425 128.75853l138.99213 0l0 50.04724l-138.99213 0z" fill-rule="evenodd"/><path fill="#ffffff" d="m335.46274 155.31778q0 0.6875 -0.203125 1.265625q-0.1875 0.5625 -0.546875 0.96875q-0.359375 0.40625 -0.890625 0.640625q-0.515625 0.21875 -1.1875 0.21875q-0.625 0 -1.125 -0.1875q-0.5 -0.203125 -0.859375 -0.578125q-0.34375 -0.390625 -0.53125 -0.953125q-0.171875 -0.5625 -0.171875 -1.296875q0 -0.6875 0.1875 -1.25q0.1875 -0.5625 0.546875 -0.96875q0.375 -0.40625 0.890625 -0.625q0.53125 -0.234375 1.1875 -0.234375q0.625 0 1.125 0.203125q0.515625 0.1875 0.859375 0.5625q0.34375 0.375 0.53125 0.9375q0.1875 0.5625 0.1875 1.296875zm-1.046875 0.046875q0 -0.546875 -0.125 -0.953125q-0.109375 -0.40625 -0.34375 -0.671875q-0.21875 -0.28125 -0.546875 -0.421875q-0.3125 -0.140625 -0.703125 -0.140625q-0.453125 0 -0.78125 0.1875q-0.328125 0.171875 -0.53125 0.46875q-0.203125 0.296875 -0.3125 0.703125q-0.09375 0.390625 -0.09375 0.828125q0 0.546875 0.125 0.953125q0.125 0.40625 0.34375 0.6875q0.21875 0.265625 0.53125 0.40625q0.328125 0.140625 0.71875 0.140625q0.453125 0 0.78125 -0.171875q0.328125 -0.1875 0.53125 -0.484375q0.21875 -0.3125 0.3125 -0.703125q0.09375 -0.390625 0.09375 -0.828125zm7.5507812 -0.109375q0 0.78125 -0.21875 1.375q-0.21875 0.578125 -0.609375 0.96875q-0.390625 0.390625 -0.921875 0.59375q-0.515625 0.1875 -1.140625 0.1875q-0.28125 0 -0.5625 -0.03125q-0.265625 -0.03125 -0.5625 -0.109375l0 2.46875l-1.015625 0l0 -8.296875l0.90625 0l0.0625 0.984375q0.4375 -0.59375 0.9375 -0.828125q0.5 -0.25 1.078125 -0.25q0.515625 0 0.890625 0.21875q0.375 0.203125 0.625 0.59375q0.265625 0.375 0.390625 0.921875q0.140625 0.53125 0.140625 1.203125zm-1.046875 0.046875q0 -0.46875 -0.078125 -0.84375q-0.0625 -0.390625 -0.203125 -0.65625q-0.140625 -0.28125 -0.375 -0.4375q-0.234375 -0.15625 -0.546875 -0.15625q-0.1875 0 -0.390625 0.0625q-0.203125 0.0625 -0.421875 0.203125q-0.203125 0.140625 -0.4375 0.375q-0.234375 0.234375 -0.515625 0.59375l0 2.84375q0.28125 0.125 0.59375 0.203125q0.3125 0.0625 0.609375 0.0625q0.828125 0 1.296875 -0.5625q0.46875 -0.5625 0.46875 -1.6875zm7.3476562 2.921875q-0.34375 0.078125 -0.71875 0.109375q-0.359375 0.046875 -0.734375 0.046875q-1.109375 0 -1.65625 -0.5q-0.546875 -0.5 -0.546875 -1.53125l0 -3.078125l-1.640625 0l0 -0.859375l1.640625 0l0 -1.609375l1.015625 -0.265625l0 1.875l2.640625 0l0 0.859375l-2.640625 0l0 2.984375q0 0.640625 0.328125 0.953125q0.34375 0.3125 1.0 0.3125q0.28125 0 0.609375 -0.046875q0.34375 -0.046875 0.703125 -0.140625l0 0.890625zm3.8632812 -4.96875l-1.734375 0l0 -0.84375l2.765625 0l0 5.046875l1.75 0l0 0.84375l-4.703125 0l0 -0.84375l1.921875 0l0 -4.203125zm0.359375 -3.296875q0.171875 0 0.3125 0.0625q0.15625 0.046875 0.265625 0.171875q0.109375 0.109375 0.171875 0.25q0.0625 0.140625 0.0625 0.3125q0 0.15625 -0.0625 0.3125q-0.0625 0.140625 -0.171875 0.25q-0.109375 0.109375 -0.265625 0.171875q-0.140625 0.0625 -0.3125 0.0625q-0.171875 0 -0.3125 -0.0625q-0.140625 -0.0625 -0.25 -0.171875q-0.109375 -0.109375 -0.171875 -0.25q-0.0625 -0.15625 -0.0625 -0.3125q0 -0.171875 0.0625 -0.3125q0.0625 -0.140625 0.171875 -0.25q0.109375 -0.125 0.25 -0.171875q0.140625 -0.0625 0.3125 -0.0625zm9.363281 5.359375q0 0.6875 -0.203125 1.265625q-0.1875 0.5625 -0.546875 0.96875q-0.359375 0.40625 -0.890625 0.640625q-0.515625 0.21875 -1.1875 0.21875q-0.625 0 -1.125 -0.1875q-0.5 -0.203125 -0.859375 -0.578125q-0.34375 -0.390625 -0.53125 -0.953125q-0.171875 -0.5625 -0.171875 -1.296875q0 -0.6875 0.1875 -1.25q0.1875 -0.5625 0.546875 -0.96875q0.375 -0.40625 0.890625 -0.625q0.53125 -0.234375 1.1875 -0.234375q0.625 0 1.125 0.203125q0.515625 0.1875 0.859375 0.5625q0.34375 0.375 0.53125 0.9375q0.1875 0.5625 0.1875 1.296875zm-1.046875 0.046875q0 -0.546875 -0.125 -0.953125q-0.109375 -0.40625 -0.34375 -0.671875q-0.21875 -0.28125 -0.546875 -0.421875q-0.3125 -0.140625 -0.703125 -0.140625q-0.453125 0 -0.78125 0.1875q-0.328125 0.171875 -0.53125 0.46875q-0.203125 0.296875 -0.3125 0.703125q-0.09375 0.390625 -0.09375 0.828125q0 0.546875 0.125 0.953125q0.125 0.40625 0.34375 0.6875q0.21875 0.265625 0.53125 0.40625q0.328125 0.140625 0.71875 0.140625q0.453125 0 0.78125 -0.171875q0.328125 -0.1875 0.53125 -0.484375q0.21875 -0.3125 0.3125 -0.703125q0.09375 -0.390625 0.09375 -0.828125zm2.5195312 -2.953125l0.90625 0l0.046875 0.953125q0.25 -0.296875 0.484375 -0.5q0.25 -0.203125 0.484375 -0.328125q0.234375 -0.125 0.46875 -0.171875q0.234375 -0.046875 0.5 -0.046875q0.90625 0 1.375 0.53125q0.46875 0.53125 0.46875 1.609375l0 3.84375l-1.03125 0l0 -3.75q0 -0.703125 -0.265625 -1.03125q-0.25 -0.328125 -0.75 -0.328125q-0.1875 0 -0.375 0.0625q-0.171875 0.046875 -0.375 0.1875q-0.1875 0.140625 -0.421875 0.375q-0.21875 0.234375 -0.5 0.578125l0 3.90625l-1.015625 0l0 -5.890625zm11.253906 4.28125q0 0.3125 -0.109375 0.5625q-0.09375 0.25 -0.28125 0.4375q-0.1875 0.1875 -0.421875 0.328125q-0.234375 0.125 -0.515625 0.21875q-0.265625 0.09375 -0.5625 0.125q-0.28125 0.046875 -0.5625 0.046875q-0.59375 0 -1.09375 -0.0625q-0.5 -0.046875 -0.984375 -0.171875l0 -0.9375q0.515625 0.15625 1.03125 0.234375q0.515625 0.078125 1.015625 0.078125q0.734375 0 1.078125 -0.203125q0.359375 -0.203125 0.359375 -0.578125q0 -0.15625 -0.0625 -0.28125q-0.046875 -0.125 -0.203125 -0.234375q-0.140625 -0.109375 -0.453125 -0.234375q-0.3125 -0.125 -0.84375 -0.28125q-0.390625 -0.125 -0.734375 -0.265625q-0.328125 -0.15625 -0.578125 -0.359375q-0.25 -0.203125 -0.390625 -0.46875q-0.140625 -0.28125 -0.140625 -0.65625q0 -0.25 0.109375 -0.546875q0.125 -0.296875 0.390625 -0.546875q0.28125 -0.25 0.75 -0.40625q0.46875 -0.171875 1.171875 -0.171875q0.34375 0 0.765625 0.046875q0.421875 0.03125 0.875 0.125l0 0.90625q-0.46875 -0.125 -0.90625 -0.171875q-0.421875 -0.0625 -0.75 -0.0625q-0.375 0 -0.640625 0.0625q-0.25 0.0625 -0.421875 0.171875q-0.15625 0.09375 -0.234375 0.234375q-0.0625 0.125 -0.0625 0.28125q0 0.171875 0.0625 0.296875q0.0625 0.125 0.21875 0.25q0.171875 0.109375 0.46875 0.234375q0.296875 0.125 0.78125 0.265625q0.53125 0.15625 0.875 0.328125q0.359375 0.15625 0.578125 0.359375q0.234375 0.203125 0.328125 0.46875q0.09375 0.25 0.09375 0.578125zm7.5976562 4.015625l-6.59375 0l0 -0.84375l6.59375 0l0 0.84375zm5.6757812 -2.40625l-1.03125 0l0 -3.75q0 -0.6875 -0.25 -1.015625q-0.25 -0.34375 -0.734375 -0.34375q-0.203125 0 -0.390625 0.0625q-0.171875 0.046875 -0.359375 0.1875q-0.1875 0.140625 -0.421875 0.375q-0.234375 0.234375 -0.53125 0.578125l0 3.90625l-1.015625 0l0 -8.28125l1.015625 0l0 2.390625l-0.03125 0.9375q0.234375 -0.296875 0.46875 -0.484375q0.234375 -0.203125 0.46875 -0.328125q0.234375 -0.125 0.46875 -0.171875q0.234375 -0.046875 0.5 -0.046875q0.875 0 1.359375 0.53125q0.484375 0.53125 0.484375 1.609375l0 3.84375zm5.6445312 0l-0.03125 -0.796875q-0.46875 0.484375 -0.96875 0.703125q-0.5 0.203125 -1.046875 0.203125q-0.5 0 -0.859375 -0.125q-0.359375 -0.140625 -0.59375 -0.359375q-0.21875 -0.234375 -0.328125 -0.53125q-0.109375 -0.3125 -0.109375 -0.671875q0 -0.875 0.65625 -1.375q0.65625 -0.5 1.953125 -0.5l1.21875 0l0 -0.515625q0 -0.53125 -0.34375 -0.84375q-0.328125 -0.3125 -1.015625 -0.3125q-0.5 0 -0.984375 0.109375q-0.484375 0.109375 -1.0 0.328125l0 -0.921875q0.203125 -0.078125 0.4375 -0.140625q0.234375 -0.0625 0.5 -0.109375q0.265625 -0.0625 0.546875 -0.09375q0.296875 -0.03125 0.578125 -0.03125q0.546875 0 0.96875 0.125q0.421875 0.109375 0.71875 0.34375q0.296875 0.234375 0.453125 0.609375q0.15625 0.359375 0.15625 0.84375l0 4.0625l-0.90625 0zm-0.109375 -2.671875l-1.296875 0q-0.375 0 -0.65625 0.078125q-0.28125 0.0625 -0.453125 0.203125q-0.171875 0.140625 -0.265625 0.34375q-0.078125 0.1875 -0.078125 0.4375q0 0.171875 0.046875 0.328125q0.0625 0.15625 0.171875 0.28125q0.125 0.109375 0.3125 0.1875q0.1875 0.0625 0.453125 0.0625q0.34375 0 0.796875 -0.203125q0.46875 -0.21875 0.96875 -0.6875l0 -1.03125zm2.9257812 -3.21875l0.90625 0l0.046875 0.953125q0.25 -0.296875 0.484375 -0.5q0.25 -0.203125 0.484375 -0.328125q0.234375 -0.125 0.46875 -0.171875q0.234375 -0.046875 0.5 -0.046875q0.90625 0 1.375 0.53125q0.46875 0.53125 0.46875 1.609375l0 3.84375l-1.03125 0l0 -3.75q0 -0.703125 -0.265625 -1.03125q-0.25 -0.328125 -0.75 -0.328125q-0.1875 0 -0.375 0.0625q-0.171875 0.046875 -0.375 0.1875q-0.1875 0.140625 -0.421875 0.375q-0.21875 0.234375 -0.5 0.578125l0 3.90625l-1.015625 0l0 -5.890625zm6.3007812 3.078125q0 -0.75 0.203125 -1.328125q0.203125 -0.59375 0.578125 -0.984375q0.390625 -0.40625 0.90625 -0.609375q0.53125 -0.21875 1.1875 -0.21875q0.28125 0 0.546875 0.03125q0.28125 0.03125 0.546875 0.109375l0 -2.46875l1.015625 0l0 8.28125l-0.90625 0l-0.03125 -1.109375q-0.4375 0.609375 -0.9375 0.921875q-0.484375 0.296875 -1.078125 0.296875q-0.5 0 -0.890625 -0.203125q-0.375 -0.21875 -0.640625 -0.59375q-0.25 -0.390625 -0.375 -0.921875q-0.125 -0.546875 -0.125 -1.203125zm1.046875 -0.078125q0 1.078125 0.3125 1.609375q0.3125 0.515625 0.890625 0.515625q0.375 0 0.796875 -0.34375q0.4375 -0.34375 0.921875 -1.03125l0 -2.734375q-0.25 -0.109375 -0.5625 -0.171875q-0.296875 -0.0625 -0.59375 -0.0625q-0.84375 0 -1.3125 0.546875q-0.453125 0.53125 -0.453125 1.671875zm7.8476562 -4.546875l-1.734375 0l0 -0.84375l2.765625 0l0 7.4375l1.75 0l0 0.84375l-4.703125 0l0 -0.84375l1.921875 0l0 -6.59375zm9.566406 4.1875q0 0.21875 -0.015625 0.359375q0 0.140625 0 0.28125l-4.140625 0q0 0.890625 0.5 1.375q0.515625 0.484375 1.453125 0.484375q0.265625 0 0.515625 -0.015625q0.265625 -0.015625 0.5 -0.046875q0.25 -0.046875 0.46875 -0.078125q0.21875 -0.046875 0.40625 -0.109375l0 0.84375q-0.421875 0.109375 -0.953125 0.1875q-0.515625 0.078125 -1.078125 0.078125q-0.75 0 -1.296875 -0.203125q-0.546875 -0.21875 -0.90625 -0.59375q-0.34375 -0.390625 -0.515625 -0.953125q-0.15625 -0.578125 -0.15625 -1.296875q0 -0.609375 0.171875 -1.15625q0.1875 -0.5625 0.53125 -0.984375q0.34375 -0.421875 0.828125 -0.65625q0.5 -0.25 1.140625 -0.25q0.609375 0 1.078125 0.1875q0.484375 0.1875 0.8125 0.546875q0.328125 0.359375 0.484375 0.875q0.171875 0.5 0.171875 1.125zm-1.0625 -0.15625q0.015625 -0.390625 -0.078125 -0.703125q-0.09375 -0.328125 -0.296875 -0.5625q-0.1875 -0.234375 -0.484375 -0.359375q-0.28125 -0.140625 -0.671875 -0.140625q-0.328125 0 -0.609375 0.125q-0.28125 0.125 -0.484375 0.359375q-0.1875 0.234375 -0.3125 0.5625q-0.125 0.328125 -0.15625 0.71875l3.09375 0zm2.9257812 -2.484375l0.9375 0l0.03125 1.09375q0.515625 -0.625 1.015625 -0.90625q0.515625 -0.28125 1.03125 -0.28125q0.921875 0 1.390625 0.59375q0.46875 0.578125 0.4375 1.75l-1.03125 0q0.015625 -0.765625 -0.234375 -1.109375q-0.234375 -0.359375 -0.703125 -0.359375q-0.203125 0 -0.421875 0.078125q-0.203125 0.0625 -0.421875 0.234375q-0.21875 0.15625 -0.46875 0.40625q-0.25 0.25 -0.53125 0.609375l0 3.78125l-1.03125 0l0 -5.890625zm9.878906 8.359375q-2.6875 -2.515625 -2.6875 -5.546875q0 -0.703125 0.140625 -1.40625q0.140625 -0.703125 0.453125 -1.40625q0.328125 -0.71875 0.84375 -1.421875q0.53125 -0.71875 1.28125 -1.40625l0.59375 0.59375q-2.28125 2.25 -2.28125 4.984375q0 1.359375 0.578125 2.609375q0.578125 1.25 1.703125 2.359375l-0.625 0.640625zm4.2851562 -11.1875q2.703125 2.5 2.703125 5.5625q0 0.625 -0.140625 1.3125q-0.125 0.671875 -0.4375 1.390625q-0.296875 0.71875 -0.828125 1.4375q-0.53125 0.734375 -1.328125 1.484375l-0.578125 -0.609375q1.140625 -1.125 1.703125 -2.359375q0.5625 -1.234375 0.5625 -2.578125q0 -2.796875 -2.265625 -5.015625l0.609375 -0.625z" fill-rule="nonzero"/><path fill="#3c78d8" d="m358.59494 210.00131l67.180664 0c-7.4205933 0 -13.436157 8.919632 -13.436157 19.922577c0 11.00293 6.015564 19.922562 13.436157 19.922562l-67.180664 0l0 0c-7.4205933 0 -13.436157 -8.919632 -13.436157 -19.922562c0 -11.002945 6.015564 -19.922577 13.436157 -19.922577z" fill-rule="evenodd"/><path stroke="#000000" stroke-width="1.0" stroke-linejoin="round" stroke-linecap="butt" d="m358.59494 210.00131l67.180664 0c-7.4205933 0 -13.436157 8.919632 -13.436157 19.922577c0 11.00293 6.015564 19.922562 13.436157 19.922562l-67.180664 0l0 0c-7.4205933 0 -13.436157 -8.919632 -13.436157 -19.922562c0 -11.002945 6.015564 -19.922577 13.436157 -19.922577z" fill-rule="evenodd"/><path fill="#ffffff" d="m371.42593 232.66139l1.15625 -0.1875q0.109375 0.703125 0.546875 1.078125q0.453125 0.359375 1.25 0.359375q0.8125 0 1.203125 -0.328125q0.390625 -0.328125 0.390625 -0.765625q0 -0.390625 -0.359375 -0.625q-0.234375 -0.15625 -1.1875 -0.390625q-1.296875 -0.328125 -1.796875 -0.5625q-0.484375 -0.25 -0.75 -0.65625q-0.25 -0.421875 -0.25 -0.9375q0 -0.453125 0.203125 -0.84375q0.21875 -0.40625 0.578125 -0.671875q0.28125 -0.1875 0.75 -0.328125q0.46875 -0.140625 1.015625 -0.140625q0.8125 0 1.421875 0.234375q0.609375 0.234375 0.90625 0.640625q0.296875 0.390625 0.40625 1.0625l-1.140625 0.15625q-0.078125 -0.53125 -0.453125 -0.828125q-0.375 -0.3125 -1.0625 -0.3125q-0.8125 0 -1.15625 0.265625q-0.34375 0.265625 -0.34375 0.625q0 0.234375 0.140625 0.421875q0.15625 0.1875 0.453125 0.3125q0.171875 0.0625 1.03125 0.296875q1.25 0.328125 1.734375 0.546875q0.5 0.203125 0.78125 0.609375q0.28125 0.40625 0.28125 1.0q0 0.59375 -0.34375 1.109375q-0.34375 0.515625 -1.0 0.796875q-0.640625 0.28125 -1.453125 0.28125q-1.34375 0 -2.046875 -0.5625q-0.703125 -0.5625 -0.90625 -1.65625zm9.6953125 1.015625l0.171875 1.03125q-0.5 0.109375 -0.890625 0.109375q-0.640625 0 -1.0 -0.203125q-0.34375 -0.203125 -0.484375 -0.53125q-0.140625 -0.328125 -0.140625 -1.390625l0 -3.96875l-0.859375 0l0 -0.90625l0.859375 0l0 -1.71875l1.171875 -0.703125l0 2.421875l1.171875 0l0 0.90625l-1.171875 0l0 4.046875q0 0.5 0.046875 0.640625q0.0625 0.140625 0.203125 0.234375q0.140625 0.078125 0.40625 0.078125q0.203125 0 0.515625 -0.046875zm5.656128 0.1875q-0.65625 0.5625 -1.265625 0.796875q-0.59375 0.21875 -1.28125 0.21875q-1.140625 0 -1.75 -0.546875q-0.609375 -0.5625 -0.609375 -1.4375q0 -0.5 0.21875 -0.921875q0.234375 -0.421875 0.609375 -0.671875q0.375 -0.25 0.84375 -0.390625q0.34375 -0.078125 1.046875 -0.171875q1.421875 -0.171875 2.09375 -0.40625q0 -0.234375 0 -0.296875q0 -0.71875 -0.328125 -1.015625q-0.453125 -0.390625 -1.34375 -0.390625q-0.8125 0 -1.21875 0.296875q-0.390625 0.28125 -0.578125 1.015625l-1.140625 -0.15625q0.15625 -0.734375 0.515625 -1.1875q0.359375 -0.453125 1.03125 -0.6875q0.671875 -0.25 1.5625 -0.25q0.890625 0 1.4375 0.203125q0.5625 0.203125 0.8125 0.53125q0.265625 0.3125 0.375 0.796875q0.046875 0.296875 0.046875 1.078125l0 1.5625q0 1.625 0.078125 2.0625q0.078125 0.4375 0.296875 0.828125l-1.21875 0q-0.1875 -0.359375 -0.234375 -0.859375zm-0.09375 -2.609375q-0.640625 0.265625 -1.921875 0.4375q-0.71875 0.109375 -1.015625 0.25q-0.296875 0.125 -0.46875 0.375q-0.15625 0.25 -0.15625 0.546875q0 0.46875 0.34375 0.78125q0.359375 0.3125 1.046875 0.3125q0.671875 0 1.203125 -0.296875q0.53125 -0.296875 0.78125 -0.8125q0.1875 -0.390625 0.1875 -1.171875l0 -0.421875zm5.5531006 2.421875l0.171875 1.03125q-0.5 0.109375 -0.890625 0.109375q-0.640625 0 -1.0 -0.203125q-0.34375 -0.203125 -0.484375 -0.53125q-0.140625 -0.328125 -0.140625 -1.390625l0 -3.96875l-0.859375 0l0 -0.90625l0.859375 0l0 -1.71875l1.171875 -0.703125l0 2.421875l1.171875 0l0 0.90625l-1.171875 0l0 4.046875q0 0.5 0.046875 0.640625q0.0625 0.140625 0.203125 0.234375q0.140625 0.078125 0.40625 0.078125q0.203125 0 0.515625 -0.046875zm5.874878 -1.171875l1.203125 0.140625q-0.28125 1.0625 -1.0625 1.65625q-0.765625 0.578125 -1.96875 0.578125q-1.515625 0 -2.40625 -0.9375q-0.890625 -0.9375 -0.890625 -2.609375q0 -1.75 0.890625 -2.703125q0.90625 -0.96875 2.34375 -0.96875q1.390625 0 2.265625 0.9375q0.875 0.9375 0.875 2.65625q0 0.109375 0 0.3125l-5.15625 0q0.0625 1.140625 0.640625 1.75q0.578125 0.59375 1.4375 0.59375q0.65625 0 1.109375 -0.328125q0.453125 -0.34375 0.71875 -1.078125zm-3.84375 -1.90625l3.859375 0q-0.078125 -0.859375 -0.4375 -1.296875q-0.5625 -0.6875 -1.453125 -0.6875q-0.8125 0 -1.359375 0.546875q-0.546875 0.53125 -0.609375 1.4375z" fill-rule="nonzero"/><path fill="#93c47d" d="m44.230972 365.55927l0 0c0 -5.8853455 4.771023 -10.656372 10.65638 -10.656372l80.577 0c2.8262482 0 5.536743 1.1227112 7.535202 3.1211853c1.9984589 1.9984436 3.12117 4.708954 3.12117 7.535187l0 42.624237c0 5.885376 -4.7710114 10.656403 -10.656372 10.656403l-80.577 0c-5.885357 0 -10.65638 -4.7710266 -10.65638 -10.656403z" fill-rule="evenodd"/><path stroke="#000000" stroke-width="1.0" stroke-linejoin="round" stroke-linecap="butt" d="m44.230972 365.55927l0 0c0 -5.8853455 4.771023 -10.656372 10.65638 -10.656372l80.577 0c2.8262482 0 5.536743 1.1227112 7.535202 3.1211853c1.9984589 1.9984436 3.12117 4.708954 3.12117 7.535187l0 42.624237c0 5.885376 -4.7710114 10.656403 -10.656372 10.656403l-80.577 0c-5.885357 0 -10.65638 -4.7710266 -10.65638 -10.656403z" fill-rule="evenodd"/><path fill="#000000" d="m76.46589 391.3914l0 -8.59375l1.125 0l0 3.53125l4.46875 0l0 -3.53125l1.140625 0l0 8.59375l-1.140625 0l0 -4.046875l-4.46875 0l0 4.046875l-1.125 0zm12.744141 -2.0l1.09375 0.125q-0.25 0.953125 -0.953125 1.484375q-0.703125 0.53125 -1.78125 0.53125q-1.359375 0 -2.171875 -0.84375q-0.796875 -0.84375 -0.796875 -2.359375q0 -1.5625 0.8125 -2.421875q0.8125 -0.875 2.09375 -0.875q1.25 0 2.03125 0.84375q0.796875 0.84375 0.796875 2.390625q0 0.09375 0 0.28125l-4.640625 0q0.0625 1.03125 0.578125 1.578125q0.515625 0.53125 1.296875 0.53125q0.578125 0 0.984375 -0.296875q0.421875 -0.3125 0.65625 -0.96875zm-3.453125 -1.703125l3.46875 0q-0.0625 -0.796875 -0.390625 -1.1875q-0.515625 -0.609375 -1.3125 -0.609375q-0.734375 0 -1.234375 0.484375q-0.484375 0.484375 -0.53125 1.3125zm9.939453 2.9375q-0.59375 0.5 -1.140625 0.703125q-0.53125 0.203125 -1.15625 0.203125q-1.03125 0 -1.578125 -0.5q-0.546875 -0.5 -0.546875 -1.28125q0 -0.453125 0.203125 -0.828125q0.203125 -0.390625 0.546875 -0.609375q0.34375 -0.234375 0.765625 -0.34375q0.296875 -0.09375 0.9375 -0.171875q1.265625 -0.140625 1.875 -0.359375q0 -0.21875 0 -0.265625q0 -0.65625 -0.296875 -0.921875q-0.40625 -0.34375 -1.203125 -0.34375q-0.734375 0 -1.09375 0.265625q-0.359375 0.25 -0.53125 0.90625l-1.03125 -0.140625q0.140625 -0.65625 0.46875 -1.0625q0.328125 -0.40625 0.9375 -0.625q0.609375 -0.21875 1.40625 -0.21875q0.796875 0 1.296875 0.1875q0.5 0.1875 0.734375 0.46875q0.234375 0.28125 0.328125 0.71875q0.046875 0.265625 0.046875 0.96875l0 1.40625q0 1.46875 0.0625 1.859375q0.078125 0.390625 0.28125 0.75l-1.109375 0q-0.15625 -0.328125 -0.203125 -0.765625zm-0.09375 -2.359375q-0.578125 0.234375 -1.71875 0.40625q-0.65625 0.09375 -0.921875 0.21875q-0.265625 0.109375 -0.421875 0.328125q-0.140625 0.21875 -0.140625 0.5q0 0.421875 0.3125 0.703125q0.328125 0.28125 0.9375 0.28125q0.609375 0 1.078125 -0.265625q0.484375 -0.265625 0.703125 -0.734375q0.171875 -0.359375 0.171875 -1.046875l0 -0.390625zm6.736328 3.125l0 -0.78125q-0.59375 0.921875 -1.734375 0.921875q-0.75 0 -1.375 -0.40625q-0.625 -0.421875 -0.96875 -1.15625q-0.34375 -0.734375 -0.34375 -1.6875q0 -0.921875 0.3125 -1.6875q0.3125 -0.765625 0.9375 -1.15625q0.625 -0.40625 1.390625 -0.40625q0.5625 0 1.0 0.234375q0.4375 0.234375 0.71875 0.609375l0 -3.078125l1.046875 0l0 8.59375l-0.984375 0zm-3.328125 -3.109375q0 1.203125 0.5 1.796875q0.5 0.578125 1.1875 0.578125q0.6875 0 1.171875 -0.5625q0.484375 -0.5625 0.484375 -1.71875q0 -1.28125 -0.5 -1.875q-0.484375 -0.59375 -1.203125 -0.59375q-0.703125 0 -1.171875 0.578125q-0.46875 0.5625 -0.46875 1.796875zm10.220703 1.109375l1.09375 0.125q-0.25 0.953125 -0.953125 1.484375q-0.703125 0.53125 -1.78125 0.53125q-1.359375 0 -2.171875 -0.84375q-0.796875 -0.84375 -0.796875 -2.359375q0 -1.5625 0.8125 -2.421875q0.8125 -0.875 2.09375 -0.875q1.25 0 2.03125 0.84375q0.796875 0.84375 0.796875 2.390625q0 0.09375 0 0.28125l-4.640625 0q0.0625 1.03125 0.578125 1.578125q0.515625 0.53125 1.296875 0.53125q0.578125 0 0.984375 -0.296875q0.421875 -0.3125 0.65625 -0.96875zm-3.453125 -1.703125l3.46875 0q-0.0625 -0.796875 -0.390625 -1.1875q-0.515625 -0.609375 -1.3125 -0.609375q-0.734375 0 -1.234375 0.484375q-0.484375 0.484375 -0.53125 1.3125zm5.861328 3.703125l0 -6.21875l0.953125 0l0 0.9375q0.359375 -0.65625 0.65625 -0.859375q0.3125 -0.21875 0.6875 -0.21875q0.53125 0 1.078125 0.328125l-0.359375 0.984375q-0.390625 -0.234375 -0.765625 -0.234375q-0.359375 0 -0.640625 0.21875q-0.265625 0.203125 -0.375 0.578125q-0.1875 0.5625 -0.1875 1.21875l0 3.265625l-1.046875 0z" fill-rule="nonzero"/><path fill="#93c47d" d="m156.3645 365.55927l0 0c0 -5.8853455 4.7710266 -10.656372 10.656387 -10.656372l80.576996 0c2.8262482 0 5.536743 1.1227112 7.535202 3.1211853c1.9984741 1.9984436 3.1211853 4.708954 3.1211853 7.535187l0 42.624237c0 5.885376 -4.7710266 10.656403 -10.656387 10.656403l-80.576996 0c-5.8853607 0 -10.656387 -4.7710266 -10.656387 -10.656403z" fill-rule="evenodd"/><path stroke="#000000" stroke-width="1.0" stroke-linejoin="round" stroke-linecap="butt" d="m156.3645 365.55927l0 0c0 -5.8853455 4.7710266 -10.656372 10.656387 -10.656372l80.576996 0c2.8262482 0 5.536743 1.1227112 7.535202 3.1211853c1.9984741 1.9984436 3.1211853 4.708954 3.1211853 7.535187l0 42.624237c0 5.885376 -4.7710266 10.656403 -10.656387 10.656403l-80.576996 0c-5.8853607 0 -10.656387 -4.7710266 -10.656387 -10.656403z" fill-rule="evenodd"/><path fill="#000000" d="m188.03107 388.37576l1.125 0.296875q-0.359375 1.390625 -1.28125 2.125q-0.921875 0.734375 -2.265625 0.734375q-1.390625 0 -2.265625 -0.5625q-0.875 -0.5625 -1.328125 -1.625q-0.453125 -1.078125 -0.453125 -2.3125q0 -1.34375 0.515625 -2.34375q0.515625 -1.0 1.453125 -1.515625q0.953125 -0.515625 2.09375 -0.515625q1.28125 0 2.15625 0.65625q0.890625 0.65625 1.234375 1.84375l-1.125 0.265625q-0.296875 -0.9375 -0.875 -1.359375q-0.5625 -0.4375 -1.421875 -0.4375q-0.984375 0 -1.65625 0.484375q-0.65625 0.46875 -0.9375 1.265625q-0.265625 0.796875 -0.265625 1.65625q0 1.09375 0.3125 1.90625q0.328125 0.8125 1.0 1.21875q0.671875 0.40625 1.46875 0.40625q0.953125 0 1.609375 -0.546875q0.671875 -0.546875 0.90625 -1.640625zm2.5253906 3.015625l0 -8.59375l3.25 0q0.84375 0 1.296875 0.078125q0.640625 0.109375 1.0625 0.40625q0.4375 0.296875 0.6875 0.828125q0.265625 0.53125 0.265625 1.171875q0 1.09375 -0.703125 1.859375q-0.6875 0.75 -2.515625 0.75l-2.203125 0l0 3.5l-1.140625 0zm1.140625 -4.5l2.21875 0q1.109375 0 1.5625 -0.40625q0.46875 -0.421875 0.46875 -1.171875q0 -0.53125 -0.28125 -0.90625q-0.265625 -0.390625 -0.703125 -0.515625q-0.296875 -0.078125 -1.0625 -0.078125l-2.203125 0l0 3.078125zm12.503906 -4.09375l1.140625 0l0 4.96875q0 1.296875 -0.296875 2.0625q-0.296875 0.75 -1.0625 1.234375q-0.765625 0.46875 -2.0 0.46875q-1.203125 0 -1.984375 -0.40625q-0.765625 -0.421875 -1.09375 -1.203125q-0.328125 -0.796875 -0.328125 -2.15625l0 -4.96875l1.140625 0l0 4.953125q0 1.125 0.203125 1.65625q0.21875 0.53125 0.71875 0.828125q0.515625 0.28125 1.25 0.28125q1.25 0 1.78125 -0.5625q0.53125 -0.578125 0.53125 -2.203125l0 -4.953125zm2.6503906 5.828125l1.0625 -0.09375q0.078125 0.65625 0.359375 1.0625q0.28125 0.40625 0.859375 0.671875q0.59375 0.25 1.328125 0.25q0.640625 0 1.140625 -0.1875q0.5 -0.203125 0.734375 -0.53125q0.25 -0.34375 0.25 -0.734375q0 -0.40625 -0.234375 -0.703125q-0.234375 -0.3125 -0.765625 -0.515625q-0.359375 -0.140625 -1.546875 -0.421875q-1.171875 -0.28125 -1.640625 -0.53125q-0.625 -0.328125 -0.921875 -0.796875q-0.296875 -0.484375 -0.296875 -1.078125q0 -0.640625 0.359375 -1.203125q0.375 -0.578125 1.078125 -0.859375q0.71875 -0.296875 1.578125 -0.296875q0.953125 0 1.6875 0.3125q0.734375 0.296875 1.125 0.90625q0.390625 0.59375 0.421875 1.34375l-1.09375 0.078125q-0.09375 -0.8125 -0.609375 -1.21875q-0.5 -0.421875 -1.484375 -0.421875q-1.03125 0 -1.5 0.375q-0.46875 0.375 -0.46875 0.90625q0 0.46875 0.328125 0.765625q0.328125 0.296875 1.703125 0.609375q1.390625 0.3125 1.90625 0.546875q0.75 0.359375 1.109375 0.890625q0.359375 0.515625 0.359375 1.21875q0 0.6875 -0.390625 1.296875q-0.390625 0.59375 -1.125 0.9375q-0.734375 0.328125 -1.65625 0.328125q-1.171875 0 -1.96875 -0.328125q-0.78125 -0.34375 -1.234375 -1.03125q-0.4375 -0.6875 -0.453125 -1.546875zm10.550781 1.828125l0.15625 0.921875q-0.453125 0.09375 -0.796875 0.09375q-0.578125 0 -0.890625 -0.171875q-0.3125 -0.1875 -0.453125 -0.484375q-0.125 -0.296875 -0.125 -1.25l0 -3.578125l-0.765625 0l0 -0.8125l0.765625 0l0 -1.546875l1.046875 -0.625l0 2.171875l1.0625 0l0 0.8125l-1.0625 0l0 3.640625q0 0.453125 0.046875 0.578125q0.0625 0.125 0.1875 0.203125q0.125 0.078125 0.359375 0.078125q0.1875 0 0.46875 -0.03125zm5.0996094 0.171875q-0.59375 0.5 -1.140625 0.703125q-0.53125 0.203125 -1.15625 0.203125q-1.03125 0 -1.578125 -0.5q-0.546875 -0.5 -0.546875 -1.28125q0 -0.453125 0.203125 -0.828125q0.203125 -0.390625 0.546875 -0.609375q0.34375 -0.234375 0.765625 -0.34375q0.296875 -0.09375 0.9375 -0.171875q1.265625 -0.140625 1.875 -0.359375q0 -0.21875 0 -0.265625q0 -0.65625 -0.296875 -0.921875q-0.40625 -0.34375 -1.203125 -0.34375q-0.734375 0 -1.09375 0.265625q-0.359375 0.25 -0.53125 0.90625l-1.03125 -0.140625q0.140625 -0.65625 0.46875 -1.0625q0.328125 -0.40625 0.9375 -0.625q0.609375 -0.21875 1.40625 -0.21875q0.796875 0 1.296875 0.1875q0.5 0.1875 0.734375 0.46875q0.234375 0.28125 0.328125 0.71875q0.046875 0.265625 0.046875 0.96875l0 1.40625q0 1.46875 0.0625 1.859375q0.078125 0.390625 0.28125 0.75l-1.109375 0q-0.15625 -0.328125 -0.203125 -0.765625zm-0.09375 -2.359375q-0.578125 0.234375 -1.71875 0.40625q-0.65625 0.09375 -0.921875 0.21875q-0.265625 0.109375 -0.421875 0.328125q-0.140625 0.21875 -0.140625 0.5q0 0.421875 0.3125 0.703125q0.328125 0.28125 0.9375 0.28125q0.609375 0 1.078125 -0.265625q0.484375 -0.265625 0.703125 -0.734375q0.171875 -0.359375 0.171875 -1.046875l0 -0.390625zm5.001953 2.1875l0.15625 0.921875q-0.453125 0.09375 -0.796875 0.09375q-0.578125 0 -0.890625 -0.171875q-0.3125 -0.1875 -0.453125 -0.484375q-0.125 -0.296875 -0.125 -1.25l0 -3.578125l-0.765625 0l0 -0.8125l0.765625 0l0 -1.546875l1.046875 -0.625l0 2.171875l1.0625 0l0 0.8125l-1.0625 0l0 3.640625q0 0.453125 0.046875 0.578125q0.0625 0.125 0.1875 0.203125q0.125 0.078125 0.359375 0.078125q0.1875 0 0.46875 -0.03125zm0.6152344 -0.921875l1.03125 -0.15625q0.09375 0.625 0.484375 0.953125q0.40625 0.328125 1.140625 0.328125q0.71875 0 1.0625 -0.28125q0.359375 -0.296875 0.359375 -0.703125q0 -0.359375 -0.3125 -0.5625q-0.21875 -0.140625 -1.078125 -0.359375q-1.15625 -0.296875 -1.609375 -0.5q-0.4375 -0.21875 -0.671875 -0.59375q-0.234375 -0.375 -0.234375 -0.84375q0 -0.40625 0.1875 -0.765625q0.1875 -0.359375 0.515625 -0.59375q0.25 -0.171875 0.671875 -0.296875q0.421875 -0.125 0.921875 -0.125q0.71875 0 1.265625 0.21875q0.5625 0.203125 0.828125 0.5625q0.265625 0.359375 0.359375 0.953125l-1.03125 0.140625q-0.0625 -0.46875 -0.40625 -0.734375q-0.328125 -0.28125 -0.953125 -0.28125q-0.71875 0 -1.03125 0.25q-0.3125 0.234375 -0.3125 0.5625q0 0.203125 0.125 0.359375q0.140625 0.171875 0.40625 0.28125q0.15625 0.0625 0.9375 0.265625q1.125 0.3125 1.5625 0.5q0.4375 0.1875 0.6875 0.546875q0.25 0.359375 0.25 0.90625q0 0.53125 -0.3125 1.0q-0.296875 0.453125 -0.875 0.71875q-0.578125 0.25 -1.3125 0.25q-1.21875 0 -1.859375 -0.5q-0.625 -0.515625 -0.796875 -1.5z" fill-rule="nonzero"/><path fill="#93c47d" d="m268.49875 365.55927l0 0c0 -5.8853455 4.7710266 -10.656372 10.656403 -10.656372l94.46677 0c2.826233 0 5.5367126 1.1227112 7.535187 3.1211853c1.9984436 1.9984436 3.1211853 4.708954 3.1211853 7.535187l0 42.624237c0 5.885376 -4.7710266 10.656403 -10.656372 10.656403l-94.46677 0c-5.885376 0 -10.656403 -4.7710266 -10.656403 -10.656403z" fill-rule="evenodd"/><path stroke="#000000" stroke-width="1.0" stroke-linejoin="round" stroke-linecap="butt" d="m268.49875 365.55927l0 0c0 -5.8853455 4.7710266 -10.656372 10.656403 -10.656372l94.46677 0c2.826233 0 5.5367126 1.1227112 7.535187 3.1211853c1.9984436 1.9984436 3.1211853 4.708954 3.1211853 7.535187l0 42.624237c0 5.885376 -4.7710266 10.656403 -10.656372 10.656403l-94.46677 0c-5.885376 0 -10.656403 -4.7710266 -10.656403 -10.656403z" fill-rule="evenodd"/><path fill="#000000" d="m289.3475 389.31326q0 0.546875 -0.234375 0.96875q-0.21875 0.40625 -0.625 0.671875q-0.390625 0.265625 -0.953125 0.40625q-0.546875 0.140625 -1.21875 0.140625q-0.3125 0 -0.609375 -0.03125q-0.296875 -0.015625 -0.578125 -0.0625q-0.28125 -0.03125 -0.53125 -0.078125q-0.25 -0.046875 -0.4375 -0.09375l0 -1.015625q0.4375 0.171875 0.984375 0.265625q0.546875 0.09375 1.25 0.09375q0.5 0 0.84375 -0.078125q0.359375 -0.078125 0.578125 -0.234375q0.234375 -0.15625 0.328125 -0.375q0.109375 -0.234375 0.109375 -0.515625q0 -0.3125 -0.171875 -0.53125q-0.171875 -0.21875 -0.453125 -0.390625q-0.28125 -0.171875 -0.640625 -0.3125q-0.359375 -0.15625 -0.734375 -0.296875q-0.375 -0.15625 -0.734375 -0.328125q-0.359375 -0.1875 -0.640625 -0.421875q-0.28125 -0.25 -0.453125 -0.578125q-0.171875 -0.328125 -0.171875 -0.78125q0 -0.390625 0.15625 -0.765625q0.171875 -0.390625 0.515625 -0.6875q0.34375 -0.296875 0.875 -0.46875q0.546875 -0.1875 1.296875 -0.1875q0.203125 0 0.421875 0.015625q0.234375 0.015625 0.453125 0.046875q0.234375 0.03125 0.453125 0.078125q0.234375 0.046875 0.421875 0.09375l0 0.9375q-0.4375 -0.140625 -0.890625 -0.203125q-0.453125 -0.0625 -0.875 -0.0625q-0.90625 0 -1.328125 0.296875q-0.421875 0.296875 -0.421875 0.796875q0 0.3125 0.171875 0.546875q0.1875 0.21875 0.46875 0.390625q0.28125 0.171875 0.640625 0.328125q0.359375 0.140625 0.734375 0.296875q0.375 0.140625 0.734375 0.328125q0.359375 0.171875 0.640625 0.421875q0.28125 0.25 0.453125 0.59375q0.171875 0.328125 0.171875 0.78125zm6.4257812 2.078125l-0.921875 0l-0.03125 -0.953125q-0.265625 0.3125 -0.5 0.515625q-0.234375 0.203125 -0.46875 0.328125q-0.234375 0.109375 -0.484375 0.15625q-0.234375 0.0625 -0.5 0.0625q-0.90625 0 -1.375 -0.53125q-0.453125 -0.546875 -0.453125 -1.625l0 -3.84375l1.015625 0l0 3.765625q0 1.359375 1.03125 1.359375q0.1875 0 0.359375 -0.046875q0.171875 -0.0625 0.375 -0.203125q0.203125 -0.140625 0.421875 -0.375q0.21875 -0.234375 0.5 -0.59375l0 -3.90625l1.03125 0l0 5.890625zm6.8945312 -3.046875q0 0.734375 -0.203125 1.3125q-0.203125 0.578125 -0.578125 0.984375q-0.375 0.390625 -0.90625 0.609375q-0.53125 0.21875 -1.203125 0.21875q-0.515625 0 -1.0625 -0.09375q-0.546875 -0.109375 -1.078125 -0.328125l0 -7.9375l1.015625 0l0 2.28125l-0.046875 1.09375q0.4375 -0.59375 0.9375 -0.828125q0.515625 -0.25 1.078125 -0.25q0.515625 0 0.890625 0.21875q0.375 0.203125 0.625 0.59375q0.265625 0.375 0.390625 0.921875q0.140625 0.53125 0.140625 1.203125zm-1.046875 0.046875q0 -0.46875 -0.078125 -0.84375q-0.0625 -0.390625 -0.203125 -0.65625q-0.140625 -0.28125 -0.375 -0.4375q-0.234375 -0.15625 -0.546875 -0.15625q-0.1875 0 -0.390625 0.0625q-0.203125 0.0625 -0.421875 0.203125q-0.203125 0.140625 -0.4375 0.375q-0.234375 0.234375 -0.515625 0.59375l0 2.84375q0.296875 0.125 0.609375 0.203125q0.3125 0.0625 0.59375 0.0625q0.359375 0 0.671875 -0.109375q0.328125 -0.125 0.5625 -0.375q0.25 -0.265625 0.390625 -0.6875q0.140625 -0.4375 0.140625 -1.078125zm7.2695312 1.390625q0 0.3125 -0.109375 0.5625q-0.09375 0.25 -0.28125 0.4375q-0.1875 0.1875 -0.421875 0.328125q-0.234375 0.125 -0.515625 0.21875q-0.265625 0.09375 -0.5625 0.125q-0.28125 0.046875 -0.5625 0.046875q-0.59375 0 -1.09375 -0.0625q-0.5 -0.046875 -0.984375 -0.171875l0 -0.9375q0.515625 0.15625 1.03125 0.234375q0.515625 0.078125 1.015625 0.078125q0.734375 0 1.078125 -0.203125q0.359375 -0.203125 0.359375 -0.578125q0 -0.15625 -0.0625 -0.28125q-0.046875 -0.125 -0.203125 -0.234375q-0.140625 -0.109375 -0.453125 -0.234375q-0.3125 -0.125 -0.84375 -0.28125q-0.390625 -0.125 -0.734375 -0.265625q-0.328125 -0.15625 -0.578125 -0.359375q-0.25 -0.203125 -0.390625 -0.46875q-0.140625 -0.28125 -0.140625 -0.65625q0 -0.25 0.109375 -0.546875q0.125 -0.296875 0.390625 -0.546875q0.28125 -0.25 0.75 -0.40625q0.46875 -0.171875 1.171875 -0.171875q0.34375 0 0.765625 0.046875q0.421875 0.03125 0.875 0.125l0 0.90625q-0.46875 -0.125 -0.90625 -0.171875q-0.421875 -0.0625 -0.75 -0.0625q-0.375 0 -0.640625 0.0625q-0.25 0.0625 -0.421875 0.171875q-0.15625 0.09375 -0.234375 0.234375q-0.0625 0.125 -0.0625 0.28125q0 0.171875 0.0625 0.296875q0.0625 0.125 0.21875 0.25q0.171875 0.109375 0.46875 0.234375q0.296875 0.125 0.78125 0.265625q0.53125 0.15625 0.875 0.328125q0.359375 0.15625 0.578125 0.359375q0.234375 0.203125 0.328125 0.46875q0.09375 0.25 0.09375 0.578125zm7.1757812 -4.28125l-2.0 5.265625q-0.3125 0.8125 -0.65625 1.390625q-0.328125 0.578125 -0.71875 0.953125q-0.390625 0.375 -0.859375 0.546875q-0.46875 0.171875 -1.046875 0.171875q-0.15625 0 -0.28125 -0.015625q-0.109375 0 -0.265625 0l0 -0.9375q0.125 0.015625 0.28125 0.03125q0.15625 0.015625 0.328125 0.015625q0.28125 0 0.515625 -0.078125q0.25 -0.078125 0.46875 -0.265625q0.21875 -0.1875 0.40625 -0.484375q0.203125 -0.28125 0.390625 -0.703125l-2.34375 -5.890625l1.15625 0l1.484375 3.890625l0.296875 0.921875l0.34375 -0.9375l1.375 -3.875l1.125 0zm6.0195312 4.28125q0 0.3125 -0.109375 0.5625q-0.09375 0.25 -0.28125 0.4375q-0.1875 0.1875 -0.421875 0.328125q-0.234375 0.125 -0.515625 0.21875q-0.265625 0.09375 -0.5625 0.125q-0.28125 0.046875 -0.5625 0.046875q-0.59375 0 -1.09375 -0.0625q-0.5 -0.046875 -0.984375 -0.171875l0 -0.9375q0.515625 0.15625 1.03125 0.234375q0.515625 0.078125 1.015625 0.078125q0.734375 0 1.078125 -0.203125q0.359375 -0.203125 0.359375 -0.578125q0 -0.15625 -0.0625 -0.28125q-0.046875 -0.125 -0.203125 -0.234375q-0.140625 -0.109375 -0.453125 -0.234375q-0.3125 -0.125 -0.84375 -0.28125q-0.390625 -0.125 -0.734375 -0.265625q-0.328125 -0.15625 -0.578125 -0.359375q-0.25 -0.203125 -0.390625 -0.46875q-0.140625 -0.28125 -0.140625 -0.65625q0 -0.25 0.109375 -0.546875q0.125 -0.296875 0.390625 -0.546875q0.28125 -0.25 0.75 -0.40625q0.46875 -0.171875 1.171875 -0.171875q0.34375 0 0.765625 0.046875q0.421875 0.03125 0.875 0.125l0 0.90625q-0.46875 -0.125 -0.90625 -0.171875q-0.421875 -0.0625 -0.75 -0.0625q-0.375 0 -0.640625 0.0625q-0.25 0.0625 -0.421875 0.171875q-0.15625 0.09375 -0.234375 0.234375q-0.0625 0.125 -0.0625 0.28125q0 0.171875 0.0625 0.296875q0.0625 0.125 0.21875 0.25q0.171875 0.109375 0.46875 0.234375q0.296875 0.125 0.78125 0.265625q0.53125 0.15625 0.875 0.328125q0.359375 0.15625 0.578125 0.359375q0.234375 0.203125 0.328125 0.46875q0.09375 0.25 0.09375 0.578125zm6.6757812 1.53125q-0.34375 0.078125 -0.71875 0.109375q-0.359375 0.046875 -0.734375 0.046875q-1.109375 0 -1.65625 -0.5q-0.546875 -0.5 -0.546875 -1.53125l0 -3.078125l-1.640625 0l0 -0.859375l1.640625 0l0 -1.609375l1.015625 -0.265625l0 1.875l2.640625 0l0 0.859375l-2.640625 0l0 2.984375q0 0.640625 0.328125 0.953125q0.34375 0.3125 1.0 0.3125q0.28125 0 0.609375 -0.046875q0.34375 -0.046875 0.703125 -0.140625l0 0.890625zm6.8320312 -3.171875q0 0.21875 -0.015625 0.359375q0 0.140625 0 0.28125l-4.140625 0q0 0.890625 0.5 1.375q0.515625 0.484375 1.453125 0.484375q0.265625 0 0.515625 -0.015625q0.265625 -0.015625 0.5 -0.046875q0.25 -0.046875 0.46875 -0.078125q0.21875 -0.046875 0.40625 -0.109375l0 0.84375q-0.421875 0.109375 -0.953125 0.1875q-0.515625 0.078125 -1.078125 0.078125q-0.75 0 -1.296875 -0.203125q-0.546875 -0.21875 -0.90625 -0.59375q-0.34375 -0.390625 -0.515625 -0.953125q-0.15625 -0.578125 -0.15625 -1.296875q0 -0.609375 0.171875 -1.15625q0.1875 -0.5625 0.53125 -0.984375q0.34375 -0.421875 0.828125 -0.65625q0.5 -0.25 1.140625 -0.25q0.609375 0 1.078125 0.1875q0.484375 0.1875 0.8125 0.546875q0.328125 0.359375 0.484375 0.875q0.171875 0.5 0.171875 1.125zm-1.0625 -0.15625q0.015625 -0.390625 -0.078125 -0.703125q-0.09375 -0.328125 -0.296875 -0.5625q-0.1875 -0.234375 -0.484375 -0.359375q-0.28125 -0.140625 -0.671875 -0.140625q-0.328125 0 -0.609375 0.125q-0.28125 0.125 -0.484375 0.359375q-0.1875 0.234375 -0.3125 0.5625q-0.125 0.328125 -0.15625 0.71875l3.09375 0zm6.8945312 3.40625l0 -4.21875q0 -0.28125 -0.03125 -0.453125q-0.015625 -0.1875 -0.0625 -0.28125q-0.046875 -0.109375 -0.109375 -0.140625q-0.0625 -0.046875 -0.171875 -0.046875q-0.109375 0 -0.21875 0.078125q-0.09375 0.0625 -0.21875 0.21875q-0.109375 0.15625 -0.25 0.421875q-0.125 0.265625 -0.3125 0.640625l0 3.78125l-0.9375 0l0 -4.109375q0 -0.328125 -0.015625 -0.515625q-0.015625 -0.203125 -0.0625 -0.3125q-0.046875 -0.125 -0.125 -0.15625q-0.0625 -0.046875 -0.15625 -0.046875q-0.109375 0 -0.203125 0.0625q-0.09375 0.0625 -0.21875 0.21875q-0.109375 0.140625 -0.25 0.40625q-0.140625 0.265625 -0.328125 0.671875l0 3.78125l-0.9375 0l0 -5.890625l0.78125 0l0.046875 1.125q0.140625 -0.328125 0.28125 -0.5625q0.15625 -0.234375 0.296875 -0.375q0.15625 -0.15625 0.328125 -0.21875q0.171875 -0.0625 0.390625 -0.0625q0.46875 0 0.71875 0.3125q0.25 0.296875 0.25 0.953125q0.140625 -0.296875 0.265625 -0.53125q0.140625 -0.25 0.296875 -0.40625q0.15625 -0.15625 0.34375 -0.234375q0.1875 -0.09375 0.4375 -0.09375q1.109375 0 1.109375 1.703125l0 4.28125l-0.9375 0zm4.2226562 -6.78125l-1.75 0l0 -0.875l4.578125 0l0 0.875l-1.765625 0l0 5.890625l1.765625 0l0 0.890625l-4.578125 0l0 -0.890625l1.75 0l0 -5.890625zm4.7695312 0.890625l0.90625 0l0.046875 0.953125q0.25 -0.296875 0.484375 -0.5q0.25 -0.203125 0.484375 -0.328125q0.234375 -0.125 0.46875 -0.171875q0.234375 -0.046875 0.5 -0.046875q0.90625 0 1.375 0.53125q0.46875 0.53125 0.46875 1.609375l0 3.84375l-1.03125 0l0 -3.75q0 -0.703125 -0.265625 -1.03125q-0.25 -0.328125 -0.75 -0.328125q-0.1875 0 -0.375 0.0625q-0.171875 0.046875 -0.375 0.1875q-0.1875 0.140625 -0.421875 0.375q-0.21875 0.234375 -0.5 0.578125l0 3.90625l-1.015625 0l0 -5.890625zm11.816406 -1.4375q-0.796875 -0.171875 -1.375 -0.171875q-1.375 0 -1.375 1.4375l0 1.03125l2.578125 0l0 0.859375l-2.578125 0l0 4.171875l-1.046875 0l0 -4.171875l-1.890625 0l0 -0.859375l1.890625 0l0 -0.96875q0 -2.34375 2.453125 -2.34375q0.609375 0 1.34375 0.140625l0 0.875zm-6.15625 1.4375l0 0zm12.660156 2.90625q0 0.6875 -0.203125 1.265625q-0.1875 0.5625 -0.546875 0.96875q-0.359375 0.40625 -0.890625 0.640625q-0.515625 0.21875 -1.1875 0.21875q-0.625 0 -1.125 -0.1875q-0.5 -0.203125 -0.859375 -0.578125q-0.34375 -0.390625 -0.53125 -0.953125q-0.171875 -0.5625 -0.171875 -1.296875q0 -0.6875 0.1875 -1.25q0.1875 -0.5625 0.546875 -0.96875q0.375 -0.40625 0.890625 -0.625q0.53125 -0.234375 1.1875 -0.234375q0.625 0 1.125 0.203125q0.515625 0.1875 0.859375 0.5625q0.34375 0.375 0.53125 0.9375q0.1875 0.5625 0.1875 1.296875zm-1.046875 0.046875q0 -0.546875 -0.125 -0.953125q-0.109375 -0.40625 -0.34375 -0.671875q-0.21875 -0.28125 -0.546875 -0.421875q-0.3125 -0.140625 -0.703125 -0.140625q-0.453125 0 -0.78125 0.1875q-0.328125 0.171875 -0.53125 0.46875q-0.203125 0.296875 -0.3125 0.703125q-0.09375 0.390625 -0.09375 0.828125q0 0.546875 0.125 0.953125q0.125 0.40625 0.34375 0.6875q0.21875 0.265625 0.53125 0.40625q0.328125 0.140625 0.71875 0.140625q0.453125 0 0.78125 -0.171875q0.328125 -0.1875 0.53125 -0.484375q0.21875 -0.3125 0.3125 -0.703125q0.09375 -0.390625 0.09375 -0.828125z" fill-rule="nonzero"/><path fill="#93c47d" d="m396.63275 365.55927l0 0c0 -5.8853455 4.7710266 -10.656372 10.656372 -10.656372l100.5455 0c2.8262634 0 5.5367737 1.1227112 7.535187 3.1211853c1.9984741 1.9984436 3.1212158 4.708954 3.1212158 7.535187l0 42.624237c0 5.885376 -4.771057 10.656403 -10.656403 10.656403l-100.5455 0c-5.8853455 0 -10.656372 -4.7710266 -10.656372 -10.656403z" fill-rule="evenodd"/><path stroke="#000000" stroke-width="1.0" stroke-linejoin="round" stroke-linecap="butt" d="m396.63275 365.55927l0 0c0 -5.8853455 4.7710266 -10.656372 10.656372 -10.656372l100.5455 0c2.8262634 0 5.5367737 1.1227112 7.535187 3.1211853c1.9984741 1.9984436 3.1212158 4.708954 3.1212158 7.535187l0 42.624237c0 5.885376 -4.771057 10.656403 -10.656403 10.656403l-100.5455 0c-5.8853455 0 -10.656372 -4.7710266 -10.656372 -10.656403z" fill-rule="evenodd"/><path fill="#000000" d="m412.1244 391.3914l0 -8.59375l1.15625 0l4.515625 6.75l0 -6.75l1.09375 0l0 8.59375l-1.171875 0l-4.515625 -6.75l0 6.75l-1.078125 0zm12.603516 -0.765625q-0.59375 0.5 -1.140625 0.703125q-0.53125 0.203125 -1.15625 0.203125q-1.03125 0 -1.578125 -0.5q-0.546875 -0.5 -0.546875 -1.28125q0 -0.453125 0.203125 -0.828125q0.203125 -0.390625 0.546875 -0.609375q0.34375 -0.234375 0.765625 -0.34375q0.296875 -0.09375 0.9375 -0.171875q1.265625 -0.140625 1.875 -0.359375q0 -0.21875 0 -0.265625q0 -0.65625 -0.296875 -0.921875q-0.40625 -0.34375 -1.203125 -0.34375q-0.734375 0 -1.09375 0.265625q-0.359375 0.25 -0.53125 0.90625l-1.03125 -0.140625q0.140625 -0.65625 0.46875 -1.0625q0.328125 -0.40625 0.9375 -0.625q0.609375 -0.21875 1.40625 -0.21875q0.796875 0 1.296875 0.1875q0.5 0.1875 0.734375 0.46875q0.234375 0.28125 0.328125 0.71875q0.046875 0.265625 0.046875 0.96875l0 1.40625q0 1.46875 0.0625 1.859375q0.078125 0.390625 0.28125 0.75l-1.109375 0q-0.15625 -0.328125 -0.203125 -0.765625zm-0.09375 -2.359375q-0.578125 0.234375 -1.71875 0.40625q-0.65625 0.09375 -0.921875 0.21875q-0.265625 0.109375 -0.421875 0.328125q-0.140625 0.21875 -0.140625 0.5q0 0.421875 0.3125 0.703125q0.328125 0.28125 0.9375 0.28125q0.609375 0 1.078125 -0.265625q0.484375 -0.265625 0.703125 -0.734375q0.171875 -0.359375 0.171875 -1.046875l0 -0.390625zm2.7050781 3.125l0 -6.21875l0.9375 0l0 0.875q0.296875 -0.46875 0.78125 -0.734375q0.484375 -0.28125 1.109375 -0.28125q0.6875 0 1.125 0.28125q0.453125 0.28125 0.625 0.796875q0.75 -1.078125 1.921875 -1.078125q0.9375 0 1.421875 0.515625q0.5 0.5 0.5 1.578125l0 4.265625l-1.046875 0l0 -3.921875q0 -0.625 -0.109375 -0.90625q-0.09375 -0.28125 -0.359375 -0.453125q-0.265625 -0.171875 -0.640625 -0.171875q-0.65625 0 -1.09375 0.4375q-0.421875 0.4375 -0.421875 1.40625l0 3.609375l-1.0625 0l0 -4.046875q0 -0.703125 -0.265625 -1.046875q-0.25 -0.359375 -0.828125 -0.359375q-0.453125 0 -0.828125 0.234375q-0.375 0.234375 -0.546875 0.6875q-0.171875 0.453125 -0.171875 1.296875l0 3.234375l-1.046875 0zm14.246094 -2.0l1.09375 0.125q-0.25 0.953125 -0.953125 1.484375q-0.703125 0.53125 -1.78125 0.53125q-1.359375 0 -2.171875 -0.84375q-0.796875 -0.84375 -0.796875 -2.359375q0 -1.5625 0.8125 -2.421875q0.8125 -0.875 2.09375 -0.875q1.25 0 2.03125 0.84375q0.796875 0.84375 0.796875 2.390625q0 0.09375 0 0.28125l-4.640625 0q0.0625 1.03125 0.578125 1.578125q0.515625 0.53125 1.296875 0.53125q0.578125 0 0.984375 -0.296875q0.421875 -0.3125 0.65625 -0.96875zm-3.453125 -1.703125l3.46875 0q-0.0625 -0.796875 -0.390625 -1.1875q-0.515625 -0.609375 -1.3125 -0.609375q-0.734375 0 -1.234375 0.484375q-0.484375 0.484375 -0.53125 1.3125zm5.455078 1.84375l1.03125 -0.15625q0.09375 0.625 0.484375 0.953125q0.40625 0.328125 1.140625 0.328125q0.71875 0 1.0625 -0.28125q0.359375 -0.296875 0.359375 -0.703125q0 -0.359375 -0.3125 -0.5625q-0.21875 -0.140625 -1.078125 -0.359375q-1.15625 -0.296875 -1.609375 -0.5q-0.4375 -0.21875 -0.671875 -0.59375q-0.234375 -0.375 -0.234375 -0.84375q0 -0.40625 0.1875 -0.765625q0.1875 -0.359375 0.515625 -0.59375q0.25 -0.171875 0.671875 -0.296875q0.421875 -0.125 0.921875 -0.125q0.71875 0 1.265625 0.21875q0.5625 0.203125 0.828125 0.5625q0.265625 0.359375 0.359375 0.953125l-1.03125 0.140625q-0.0625 -0.46875 -0.40625 -0.734375q-0.328125 -0.28125 -0.953125 -0.28125q-0.71875 0 -1.03125 0.25q-0.3125 0.234375 -0.3125 0.5625q0 0.203125 0.125 0.359375q0.140625 0.171875 0.40625 0.28125q0.15625 0.0625 0.9375 0.265625q1.125 0.3125 1.5625 0.5q0.4375 0.1875 0.6875 0.546875q0.25 0.359375 0.25 0.90625q0 0.53125 -0.3125 1.0q-0.296875 0.453125 -0.875 0.71875q-0.578125 0.25 -1.3125 0.25q-1.21875 0 -1.859375 -0.5q-0.625 -0.515625 -0.796875 -1.5zm6.421875 4.25l0 -8.609375l0.953125 0l0 0.796875q0.34375 -0.46875 0.765625 -0.703125q0.4375 -0.234375 1.046875 -0.234375q0.796875 0 1.40625 0.40625q0.609375 0.40625 0.90625 1.15625q0.3125 0.75 0.3125 1.640625q0 0.953125 -0.34375 1.71875q-0.328125 0.765625 -0.984375 1.171875q-0.65625 0.40625 -1.375 0.40625q-0.53125 0 -0.953125 -0.21875q-0.421875 -0.234375 -0.6875 -0.5625l0 3.03125l-1.046875 0zm0.953125 -5.46875q0 1.203125 0.484375 1.78125q0.484375 0.5625 1.171875 0.5625q0.703125 0 1.203125 -0.59375q0.5 -0.59375 0.5 -1.84375q0 -1.1875 -0.484375 -1.765625q-0.484375 -0.59375 -1.171875 -0.59375q-0.671875 0 -1.1875 0.625q-0.515625 0.625 -0.515625 1.828125zm9.783203 2.3125q-0.59375 0.5 -1.140625 0.703125q-0.53125 0.203125 -1.15625 0.203125q-1.03125 0 -1.578125 -0.5q-0.546875 -0.5 -0.546875 -1.28125q0 -0.453125 0.203125 -0.828125q0.203125 -0.390625 0.546875 -0.609375q0.34375 -0.234375 0.765625 -0.34375q0.296875 -0.09375 0.9375 -0.171875q1.265625 -0.140625 1.875 -0.359375q0 -0.21875 0 -0.265625q0 -0.65625 -0.296875 -0.921875q-0.40625 -0.34375 -1.203125 -0.34375q-0.734375 0 -1.09375 0.265625q-0.359375 0.25 -0.53125 0.90625l-1.03125 -0.140625q0.140625 -0.65625 0.46875 -1.0625q0.328125 -0.40625 0.9375 -0.625q0.609375 -0.21875 1.40625 -0.21875q0.796875 0 1.296875 0.1875q0.5 0.1875 0.734375 0.46875q0.234375 0.28125 0.328125 0.71875q0.046875 0.265625 0.046875 0.96875l0 1.40625q0 1.46875 0.0625 1.859375q0.078125 0.390625 0.28125 0.75l-1.109375 0q-0.15625 -0.328125 -0.203125 -0.765625zm-0.09375 -2.359375q-0.578125 0.234375 -1.71875 0.40625q-0.65625 0.09375 -0.921875 0.21875q-0.265625 0.109375 -0.421875 0.328125q-0.140625 0.21875 -0.140625 0.5q0 0.421875 0.3125 0.703125q0.328125 0.28125 0.9375 0.28125q0.609375 0 1.078125 -0.265625q0.484375 -0.265625 0.703125 -0.734375q0.171875 -0.359375 0.171875 -1.046875l0 -0.390625zm6.767578 0.84375l1.03125 0.140625q-0.171875 1.0625 -0.875 1.671875q-0.703125 0.609375 -1.71875 0.609375q-1.28125 0 -2.0625 -0.828125q-0.765625 -0.84375 -0.765625 -2.40625q0 -1.0 0.328125 -1.75q0.34375 -0.765625 1.015625 -1.140625q0.6875 -0.375 1.5 -0.375q1.0 0 1.640625 0.515625q0.65625 0.5 0.84375 1.453125l-1.03125 0.15625q-0.140625 -0.625 -0.515625 -0.9375q-0.375 -0.328125 -0.90625 -0.328125q-0.796875 0 -1.296875 0.578125q-0.5 0.5625 -0.5 1.796875q0 1.265625 0.484375 1.828125q0.484375 0.5625 1.25 0.5625q0.625 0 1.03125 -0.375q0.421875 -0.375 0.546875 -1.171875zm6.1875 0.28125l1.09375 0.125q-0.25 0.953125 -0.953125 1.484375q-0.703125 0.53125 -1.78125 0.53125q-1.359375 0 -2.171875 -0.84375q-0.796875 -0.84375 -0.796875 -2.359375q0 -1.5625 0.8125 -2.421875q0.8125 -0.875 2.09375 -0.875q1.25 0 2.03125 0.84375q0.796875 0.84375 0.796875 2.390625q0 0.09375 0 0.28125l-4.640625 0q0.0625 1.03125 0.578125 1.578125q0.515625 0.53125 1.296875 0.53125q0.578125 0 0.984375 -0.296875q0.421875 -0.3125 0.65625 -0.96875zm-3.453125 -1.703125l3.46875 0q-0.0625 -0.796875 -0.390625 -1.1875q-0.515625 -0.609375 -1.3125 -0.609375q-0.734375 0 -1.234375 0.484375q-0.484375 0.484375 -0.53125 1.3125zm8.189453 3.703125l0 -7.578125l-2.828125 0l0 -1.015625l6.8125 0l0 1.015625l-2.84375 0l0 7.578125l-1.140625 0zm7.75 -0.765625q-0.59375 0.5 -1.140625 0.703125q-0.53125 0.203125 -1.15625 0.203125q-1.03125 0 -1.578125 -0.5q-0.546875 -0.5 -0.546875 -1.28125q0 -0.453125 0.203125 -0.828125q0.203125 -0.390625 0.546875 -0.609375q0.34375 -0.234375 0.765625 -0.34375q0.296875 -0.09375 0.9375 -0.171875q1.265625 -0.140625 1.875 -0.359375q0 -0.21875 0 -0.265625q0 -0.65625 -0.296875 -0.921875q-0.40625 -0.34375 -1.203125 -0.34375q-0.734375 0 -1.09375 0.265625q-0.359375 0.25 -0.53125 0.90625l-1.03125 -0.140625q0.140625 -0.65625 0.46875 -1.0625q0.328125 -0.40625 0.9375 -0.625q0.609375 -0.21875 1.40625 -0.21875q0.796875 0 1.296875 0.1875q0.5 0.1875 0.734375 0.46875q0.234375 0.28125 0.328125 0.71875q0.046875 0.265625 0.046875 0.96875l0 1.40625q0 1.46875 0.0625 1.859375q0.078125 0.390625 0.28125 0.75l-1.109375 0q-0.15625 -0.328125 -0.203125 -0.765625zm-0.09375 -2.359375q-0.578125 0.234375 -1.71875 0.40625q-0.65625 0.09375 -0.921875 0.21875q-0.265625 0.109375 -0.421875 0.328125q-0.140625 0.21875 -0.140625 0.5q0 0.421875 0.3125 0.703125q0.328125 0.28125 0.9375 0.28125q0.609375 0 1.078125 -0.265625q0.484375 -0.265625 0.703125 -0.734375q0.171875 -0.359375 0.171875 -1.046875l0 -0.390625zm3.6738281 3.125l-0.984375 0l0 -8.59375l1.0625 0l0 3.0625q0.671875 -0.828125 1.703125 -0.828125q0.578125 0 1.078125 0.234375q0.515625 0.21875 0.84375 0.640625q0.34375 0.421875 0.53125 1.015625q0.1875 0.59375 0.1875 1.265625q0 1.59375 -0.796875 2.46875q-0.796875 0.875 -1.890625 0.875q-1.109375 0 -1.734375 -0.921875l0 0.78125zm-0.015625 -3.15625q0 1.109375 0.3125 1.609375q0.5 0.8125 1.34375 0.8125q0.6875 0 1.1875 -0.59375q0.515625 -0.59375 0.515625 -1.796875q0 -1.21875 -0.484375 -1.796875q-0.484375 -0.578125 -1.171875 -0.578125q-0.6875 0 -1.203125 0.609375q-0.5 0.59375 -0.5 1.734375zm5.689453 3.15625l0 -8.59375l1.0625 0l0 8.59375l-1.0625 0zm6.9472656 -2.0l1.09375 0.125q-0.25 0.953125 -0.953125 1.484375q-0.703125 0.53125 -1.78125 0.53125q-1.359375 0 -2.171875 -0.84375q-0.796875 -0.84375 -0.796875 -2.359375q0 -1.5625 0.8125 -2.421875q0.8125 -0.875 2.09375 -0.875q1.25 0 2.03125 0.84375q0.796875 0.84375 0.796875 2.390625q0 0.09375 0 0.28125l-4.640625 0q0.0625 1.03125 0.578125 1.578125q0.515625 0.53125 1.296875 0.53125q0.578125 0 0.984375 -0.296875q0.421875 -0.3125 0.65625 -0.96875zm-3.453125 -1.703125l3.46875 0q-0.0625 -0.796875 -0.390625 -1.1875q-0.515625 -0.609375 -1.3125 -0.609375q-0.734375 0 -1.234375 0.484375q-0.484375 0.484375 -0.53125 1.3125z" fill-rule="nonzero"/><path fill="#93c47d" d="m660.899 365.55927l0 0c0 -5.8853455 4.770996 -10.656372 10.656372 -10.656372l80.57703 0c2.826233 0 5.536682 1.1227112 7.5351562 3.1211853c1.9984741 1.9984436 3.1212158 4.708954 3.1212158 7.535187l0 42.624237c0 5.885376 -4.771057 10.656403 -10.656372 10.656403l-80.57703 0c-5.885376 0 -10.656372 -4.7710266 -10.656372 -10.656403z" fill-rule="evenodd"/><path stroke="#000000" stroke-width="1.0" stroke-linejoin="round" stroke-linecap="butt" d="m660.899 365.55927l0 0c0 -5.8853455 4.770996 -10.656372 10.656372 -10.656372l80.57703 0c2.826233 0 5.536682 1.1227112 7.5351562 3.1211853c1.9984741 1.9984436 3.1212158 4.708954 3.1212158 7.535187l0 42.624237c0 5.885376 -4.771057 10.656403 -10.656372 10.656403l-80.57703 0c-5.885376 0 -10.656372 -4.7710266 -10.656372 -10.656403z" fill-rule="evenodd"/><path fill="#000000" d="m691.74426 387.2039q0 -2.140625 1.140625 -3.34375q1.15625 -1.21875 2.96875 -1.21875q1.203125 0 2.15625 0.578125q0.953125 0.5625 1.453125 1.578125q0.5 1.015625 0.5 2.3125q0 1.296875 -0.53125 2.328125q-0.53125 1.03125 -1.5 1.5625q-0.953125 0.53125 -2.078125 0.53125q-1.21875 0 -2.171875 -0.578125q-0.953125 -0.59375 -1.453125 -1.59375q-0.484375 -1.015625 -0.484375 -2.15625zm1.171875 0.015625q0 1.5625 0.828125 2.453125q0.84375 0.890625 2.109375 0.890625q1.28125 0 2.109375 -0.890625q0.828125 -0.90625 0.828125 -2.578125q0 -1.046875 -0.359375 -1.828125q-0.34375 -0.78125 -1.03125 -1.203125q-0.6875 -0.4375 -1.53125 -0.4375q-1.203125 0 -2.078125 0.828125q-0.875 0.828125 -0.875 2.765625zm8.380859 6.5625l0 -8.609375l0.953125 0l0 0.796875q0.34375 -0.46875 0.765625 -0.703125q0.4375 -0.234375 1.046875 -0.234375q0.796875 0 1.40625 0.40625q0.609375 0.40625 0.90625 1.15625q0.3125 0.75 0.3125 1.640625q0 0.953125 -0.34375 1.71875q-0.328125 0.765625 -0.984375 1.171875q-0.65625 0.40625 -1.375 0.40625q-0.53125 0 -0.953125 -0.21875q-0.421875 -0.234375 -0.6875 -0.5625l0 3.03125l-1.046875 0zm0.953125 -5.46875q0 1.203125 0.484375 1.78125q0.484375 0.5625 1.171875 0.5625q0.703125 0 1.203125 -0.59375q0.5 -0.59375 0.5 -1.84375q0 -1.1875 -0.484375 -1.765625q-0.484375 -0.59375 -1.171875 -0.59375q-0.671875 0 -1.1875 0.625q-0.515625 0.625 -0.515625 1.828125zm8.017578 2.140625l0.15625 0.921875q-0.453125 0.09375 -0.796875 0.09375q-0.578125 0 -0.890625 -0.171875q-0.3125 -0.1875 -0.453125 -0.484375q-0.125 -0.296875 -0.125 -1.25l0 -3.578125l-0.765625 0l0 -0.8125l0.765625 0l0 -1.546875l1.046875 -0.625l0 2.171875l1.0625 0l0 0.8125l-1.0625 0l0 3.640625q0 0.453125 0.046875 0.578125q0.0625 0.125 0.1875 0.203125q0.125 0.078125 0.359375 0.078125q0.1875 0 0.46875 -0.03125zm1.0371094 -6.4375l0 -1.21875l1.0625 0l0 1.21875l-1.0625 0zm0 7.375l0 -6.21875l1.0625 0l0 6.21875l-1.0625 0zm2.2753906 -3.109375q0 -1.734375 0.953125 -2.5625q0.796875 -0.6875 1.953125 -0.6875q1.28125 0 2.09375 0.84375q0.828125 0.828125 0.828125 2.3125q0 1.203125 -0.359375 1.890625q-0.359375 0.6875 -1.0625 1.078125q-0.6875 0.375 -1.5 0.375q-1.296875 0 -2.109375 -0.828125q-0.796875 -0.84375 -0.796875 -2.421875zm1.078125 0q0 1.1875 0.515625 1.78125q0.53125 0.59375 1.3125 0.59375q0.796875 0 1.3125 -0.59375q0.515625 -0.59375 0.515625 -1.8125q0 -1.15625 -0.53125 -1.75q-0.515625 -0.59375 -1.296875 -0.59375q-0.78125 0 -1.3125 0.59375q-0.515625 0.578125 -0.515625 1.78125zm5.986328 3.109375l0 -6.21875l0.9375 0l0 0.875q0.6875 -1.015625 1.984375 -1.015625q0.5625 0 1.03125 0.203125q0.484375 0.203125 0.71875 0.53125q0.234375 0.328125 0.328125 0.765625q0.046875 0.296875 0.046875 1.03125l0 3.828125l-1.046875 0l0 -3.78125q0 -0.65625 -0.125 -0.96875q-0.125 -0.3125 -0.4375 -0.5q-0.3125 -0.203125 -0.734375 -0.203125q-0.671875 0 -1.171875 0.4375q-0.484375 0.421875 -0.484375 1.609375l0 3.40625l-1.046875 0zm6.251953 -1.859375l1.03125 -0.15625q0.09375 0.625 0.484375 0.953125q0.40625 0.328125 1.140625 0.328125q0.71875 0 1.0625 -0.28125q0.359375 -0.296875 0.359375 -0.703125q0 -0.359375 -0.3125 -0.5625q-0.21875 -0.140625 -1.078125 -0.359375q-1.15625 -0.296875 -1.609375 -0.5q-0.4375 -0.21875 -0.671875 -0.59375q-0.234375 -0.375 -0.234375 -0.84375q0 -0.40625 0.1875 -0.765625q0.1875 -0.359375 0.515625 -0.59375q0.25 -0.171875 0.671875 -0.296875q0.421875 -0.125 0.921875 -0.125q0.71875 0 1.265625 0.21875q0.5625 0.203125 0.828125 0.5625q0.265625 0.359375 0.359375 0.953125l-1.03125 0.140625q-0.0625 -0.46875 -0.40625 -0.734375q-0.328125 -0.28125 -0.953125 -0.28125q-0.71875 0 -1.03125 0.25q-0.3125 0.234375 -0.3125 0.5625q0 0.203125 0.125 0.359375q0.140625 0.171875 0.40625 0.28125q0.15625 0.0625 0.9375 0.265625q1.125 0.3125 1.5625 0.5q0.4375 0.1875 0.6875 0.546875q0.25 0.359375 0.25 0.90625q0 0.53125 -0.3125 1.0q-0.296875 0.453125 -0.875 0.71875q-0.578125 0.25 -1.3125 0.25q-1.21875 0 -1.859375 -0.5q-0.625 -0.515625 -0.796875 -1.5z" fill-rule="nonzero"/><path fill="#93c47d" d="m532.76624 365.55927l0 0c0 -5.8853455 4.771057 -10.656372 10.656433 -10.656372l94.466736 0c2.826233 0 5.536743 1.1227112 7.5352173 3.1211853c1.9984741 1.9984436 3.1211548 4.708954 3.1211548 7.535187l0 42.624237c0 5.885376 -4.770996 10.656403 -10.656372 10.656403l-94.466736 0c-5.885376 0 -10.656433 -4.7710266 -10.656433 -10.656403z" fill-rule="evenodd"/><path stroke="#000000" stroke-width="1.0" stroke-linejoin="round" stroke-linecap="butt" d="m532.76624 365.55927l0 0c0 -5.8853455 4.771057 -10.656372 10.656433 -10.656372l94.466736 0c2.826233 0 5.536743 1.1227112 7.5352173 3.1211853c1.9984741 1.9984436 3.1211548 4.708954 3.1211548 7.535187l0 42.624237c0 5.885376 -4.770996 10.656403 -10.656372 10.656403l-94.466736 0c-5.885376 0 -10.656433 -4.7710266 -10.656433 -10.656403z" fill-rule="evenodd"/><path fill="#000000" d="m549.27026 391.3914l0 -8.59375l1.125 0l0 3.53125l4.46875 0l0 -3.53125l1.140625 0l0 8.59375l-1.140625 0l0 -4.046875l-4.46875 0l0 4.046875l-1.125 0zm12.744141 -2.0l1.09375 0.125q-0.25 0.953125 -0.953125 1.484375q-0.703125 0.53125 -1.78125 0.53125q-1.359375 0 -2.171875 -0.84375q-0.796875 -0.84375 -0.796875 -2.359375q0 -1.5625 0.8125 -2.421875q0.8125 -0.875 2.09375 -0.875q1.25 0 2.03125 0.84375q0.796875 0.84375 0.796875 2.390625q0 0.09375 0 0.28125l-4.640625 0q0.0625 1.03125 0.578125 1.578125q0.515625 0.53125 1.296875 0.53125q0.578125 0 0.984375 -0.296875q0.421875 -0.3125 0.65625 -0.96875zm-3.453125 -1.703125l3.46875 0q-0.0625 -0.796875 -0.390625 -1.1875q-0.515625 -0.609375 -1.3125 -0.609375q-0.734375 0 -1.234375 0.484375q-0.484375 0.484375 -0.53125 1.3125zm5.845703 3.703125l0 -8.59375l1.0625 0l0 8.59375l-1.0625 0zm2.6972656 2.390625l0 -8.609375l0.953125 0l0 0.796875q0.34375 -0.46875 0.765625 -0.703125q0.4375 -0.234375 1.046875 -0.234375q0.796875 0 1.40625 0.40625q0.609375 0.40625 0.90625 1.15625q0.3125 0.75 0.3125 1.640625q0 0.953125 -0.34375 1.71875q-0.328125 0.765625 -0.984375 1.171875q-0.65625 0.40625 -1.375 0.40625q-0.53125 0 -0.953125 -0.21875q-0.421875 -0.234375 -0.6875 -0.5625l0 3.03125l-1.046875 0zm0.953125 -5.46875q0 1.203125 0.484375 1.78125q0.484375 0.5625 1.171875 0.5625q0.703125 0 1.203125 -0.59375q0.5 -0.59375 0.5 -1.84375q0 -1.1875 -0.484375 -1.765625q-0.484375 -0.59375 -1.171875 -0.59375q-0.671875 0 -1.1875 0.625q-0.515625 0.625 -0.515625 1.828125zm6.048828 3.078125l0 -8.59375l1.125 0l0 8.59375l-1.125 0zm3.0058594 0l0 -6.21875l0.9375 0l0 0.875q0.6875 -1.015625 1.984375 -1.015625q0.5625 0 1.03125 0.203125q0.484375 0.203125 0.71875 0.53125q0.234375 0.328125 0.328125 0.765625q0.046875 0.296875 0.046875 1.03125l0 3.828125l-1.046875 0l0 -3.78125q0 -0.65625 -0.125 -0.96875q-0.125 -0.3125 -0.4375 -0.5q-0.3125 -0.203125 -0.734375 -0.203125q-0.671875 0 -1.171875 0.4375q-0.484375 0.421875 -0.484375 1.609375l0 3.40625l-1.046875 0zm6.923828 0l0 -5.40625l-0.9375 0l0 -0.8125l0.9375 0l0 -0.671875q0 -0.625 0.109375 -0.921875q0.15625 -0.421875 0.53125 -0.671875q0.390625 -0.25 1.078125 -0.25q0.453125 0 0.984375 0.109375l-0.15625 0.90625q-0.328125 -0.046875 -0.625 -0.046875q-0.484375 0 -0.6875 0.203125q-0.1875 0.203125 -0.1875 0.765625l0 0.578125l1.21875 0l0 0.8125l-1.21875 0l0 5.40625l-1.046875 0zm2.6933594 -3.109375q0 -1.734375 0.953125 -2.5625q0.796875 -0.6875 1.953125 -0.6875q1.28125 0 2.09375 0.84375q0.828125 0.828125 0.828125 2.3125q0 1.203125 -0.359375 1.890625q-0.359375 0.6875 -1.0625 1.078125q-0.6875 0.375 -1.5 0.375q-1.296875 0 -2.109375 -0.828125q-0.796875 -0.84375 -0.796875 -2.421875zm1.078125 0q0 1.1875 0.515625 1.78125q0.53125 0.59375 1.3125 0.59375q0.796875 0 1.3125 -0.59375q0.515625 -0.59375 0.515625 -1.8125q0 -1.15625 -0.53125 -1.75q-0.515625 -0.59375 -1.296875 -0.59375q-0.78125 0 -1.3125 0.59375q-0.515625 0.578125 -0.515625 1.78125zm5.970703 3.109375l0 -6.21875l0.953125 0l0 0.9375q0.359375 -0.65625 0.65625 -0.859375q0.3125 -0.21875 0.6875 -0.21875q0.53125 0 1.078125 0.328125l-0.359375 0.984375q-0.390625 -0.234375 -0.765625 -0.234375q-0.359375 0 -0.640625 0.21875q-0.265625 0.203125 -0.375 0.578125q-0.1875 0.5625 -0.1875 1.21875l0 3.265625l-1.046875 0zm4.0117188 0l0 -6.21875l0.9375 0l0 0.875q0.296875 -0.46875 0.78125 -0.734375q0.484375 -0.28125 1.109375 -0.28125q0.6875 0 1.125 0.28125q0.453125 0.28125 0.625 0.796875q0.75 -1.078125 1.921875 -1.078125q0.9375 0 1.421875 0.515625q0.5 0.5 0.5 1.578125l0 4.265625l-1.046875 0l0 -3.921875q0 -0.625 -0.109375 -0.90625q-0.09375 -0.28125 -0.359375 -0.453125q-0.265625 -0.171875 -0.640625 -0.171875q-0.65625 0 -1.09375 0.4375q-0.421875 0.4375 -0.421875 1.40625l0 3.609375l-1.0625 0l0 -4.046875q0 -0.703125 -0.265625 -1.046875q-0.25 -0.359375 -0.828125 -0.359375q-0.453125 0 -0.828125 0.234375q-0.375 0.234375 -0.546875 0.6875q-0.171875 0.453125 -0.171875 1.296875l0 3.234375l-1.046875 0zm14.058594 -0.765625q-0.59375 0.5 -1.140625 0.703125q-0.53125 0.203125 -1.15625 0.203125q-1.03125 0 -1.578125 -0.5q-0.546875 -0.5 -0.546875 -1.28125q0 -0.453125 0.203125 -0.828125q0.203125 -0.390625 0.546875 -0.609375q0.34375 -0.234375 0.765625 -0.34375q0.296875 -0.09375 0.9375 -0.171875q1.265625 -0.140625 1.875 -0.359375q0 -0.21875 0 -0.265625q0 -0.65625 -0.296875 -0.921875q-0.40625 -0.34375 -1.203125 -0.34375q-0.734375 0 -1.09375 0.265625q-0.359375 0.25 -0.53125 0.90625l-1.03125 -0.140625q0.140625 -0.65625 0.46875 -1.0625q0.328125 -0.40625 0.9375 -0.625q0.609375 -0.21875 1.40625 -0.21875q0.796875 0 1.296875 0.1875q0.5 0.1875 0.734375 0.46875q0.234375 0.28125 0.328125 0.71875q0.046875 0.265625 0.046875 0.96875l0 1.40625q0 1.46875 0.0625 1.859375q0.078125 0.390625 0.28125 0.75l-1.109375 0q-0.15625 -0.328125 -0.203125 -0.765625zm-0.09375 -2.359375q-0.578125 0.234375 -1.71875 0.40625q-0.65625 0.09375 -0.921875 0.21875q-0.265625 0.109375 -0.421875 0.328125q-0.140625 0.21875 -0.140625 0.5q0 0.421875 0.3125 0.703125q0.328125 0.28125 0.9375 0.28125q0.609375 0 1.078125 -0.265625q0.484375 -0.265625 0.703125 -0.734375q0.171875 -0.359375 0.171875 -1.046875l0 -0.390625zm5.001953 2.1875l0.15625 0.921875q-0.453125 0.09375 -0.796875 0.09375q-0.578125 0 -0.890625 -0.171875q-0.3125 -0.1875 -0.453125 -0.484375q-0.125 -0.296875 -0.125 -1.25l0 -3.578125l-0.765625 0l0 -0.8125l0.765625 0l0 -1.546875l1.046875 -0.625l0 2.171875l1.0625 0l0 0.8125l-1.0625 0l0 3.640625q0 0.453125 0.046875 0.578125q0.0625 0.125 0.1875 0.203125q0.125 0.078125 0.359375 0.078125q0.1875 0 0.46875 -0.03125zm1.0371094 -6.4375l0 -1.21875l1.0625 0l0 1.21875l-1.0625 0zm0 7.375l0 -6.21875l1.0625 0l0 6.21875l-1.0625 0zm2.2753906 -3.109375q0 -1.734375 0.953125 -2.5625q0.796875 -0.6875 1.953125 -0.6875q1.28125 0 2.09375 0.84375q0.828125 0.828125 0.828125 2.3125q0 1.203125 -0.359375 1.890625q-0.359375 0.6875 -1.0625 1.078125q-0.6875 0.375 -1.5 0.375q-1.296875 0 -2.109375 -0.828125q-0.796875 -0.84375 -0.796875 -2.421875zm1.078125 0q0 1.1875 0.515625 1.78125q0.53125 0.59375 1.3125 0.59375q0.796875 0 1.3125 -0.59375q0.515625 -0.59375 0.515625 -1.8125q0 -1.15625 -0.53125 -1.75q-0.515625 -0.59375 -1.296875 -0.59375q-0.78125 0 -1.3125 0.59375q-0.515625 0.578125 -0.515625 1.78125zm5.986328 3.109375l0 -6.21875l0.9375 0l0 0.875q0.6875 -1.015625 1.984375 -1.015625q0.5625 0 1.03125 0.203125q0.484375 0.203125 0.71875 0.53125q0.234375 0.328125 0.328125 0.765625q0.046875 0.296875 0.046875 1.03125l0 3.828125l-1.046875 0l0 -3.78125q0 -0.65625 -0.125 -0.96875q-0.125 -0.3125 -0.4375 -0.5q-0.3125 -0.203125 -0.734375 -0.203125q-0.671875 0 -1.171875 0.4375q-0.484375 0.421875 -0.484375 1.609375l0 3.40625l-1.046875 0z" fill-rule="nonzero"/><path fill="#d5a6bd" d="m92.94722 116.64326l0 0c0 -5.885353 4.7710266 -10.65638 10.656387 -10.65638l109.04944 0c2.8262482 0 5.536743 1.1227188 7.535202 3.1211777c1.9984589 1.9984589 3.1211853 4.708954 3.1211853 7.535202l0 42.624245c0 5.8853607 -4.7710266 10.656387 -10.656387 10.656387l-109.04944 0l0 0c-5.8853607 0 -10.656387 -4.7710266 -10.656387 -10.656387z" fill-rule="evenodd"/><path stroke="#000000" stroke-width="1.0" stroke-linejoin="round" stroke-linecap="butt" stroke-dasharray="4.0,3.0" d="m92.94722 116.64326l0 0c0 -5.885353 4.7710266 -10.65638 10.656387 -10.65638l109.04944 0c2.8262482 0 5.536743 1.1227188 7.535202 3.1211777c1.9984589 1.9984589 3.1211853 4.708954 3.1211853 7.535202l0 42.624245c0 5.8853607 -4.7710266 10.656387 -10.656387 10.656387l-109.04944 0l0 0c-5.8853607 0 -10.656387 -4.7710266 -10.656387 -10.656387z" fill-rule="evenodd"/><path fill="#000000" d="m114.70938 142.47537l0 -8.59375l2.96875 0q1.0 0 1.53125 0.125q0.734375 0.171875 1.25 0.609375q0.6875 0.578125 1.015625 1.484375q0.34375 0.890625 0.34375 2.03125q0 0.984375 -0.234375 1.734375q-0.21875 0.75 -0.578125 1.25q-0.359375 0.5 -0.796875 0.78125q-0.421875 0.28125 -1.015625 0.4375q-0.59375 0.140625 -1.375 0.140625l-3.109375 0zm1.140625 -1.015625l1.828125 0q0.859375 0 1.34375 -0.15625q0.484375 -0.15625 0.765625 -0.453125q0.40625 -0.390625 0.625 -1.078125q0.234375 -0.6875 0.234375 -1.65625q0 -1.34375 -0.453125 -2.0625q-0.4375 -0.734375 -1.0625 -0.984375q-0.46875 -0.171875 -1.46875 -0.171875l-1.8125 0l0 6.5625zm11.478516 1.015625l0 -0.921875q-0.734375 1.0625 -1.984375 1.0625q-0.546875 0 -1.03125 -0.203125q-0.46875 -0.21875 -0.703125 -0.53125q-0.234375 -0.328125 -0.328125 -0.796875q-0.0625 -0.296875 -0.0625 -0.984375l0 -3.84375l1.0625 0l0 3.453125q0 0.8125 0.0625 1.109375q0.09375 0.40625 0.40625 0.65625q0.328125 0.234375 0.8125 0.234375q0.46875 0 0.875 -0.234375q0.421875 -0.25 0.59375 -0.671875q0.1875 -0.421875 0.1875 -1.21875l0 -3.328125l1.046875 0l0 6.21875l-0.9375 0zm2.5957031 0l0 -6.21875l0.9375 0l0 0.875q0.296875 -0.46875 0.78125 -0.734375q0.484375 -0.28125 1.109375 -0.28125q0.6875 0 1.125 0.28125q0.453125 0.28125 0.625 0.796875q0.75 -1.078125 1.921875 -1.078125q0.9375 0 1.421875 0.515625q0.5 0.5 0.5 1.578125l0 4.265625l-1.046875 0l0 -3.921875q0 -0.625 -0.109375 -0.90625q-0.09375 -0.28125 -0.359375 -0.453125q-0.265625 -0.171875 -0.640625 -0.171875q-0.65625 0 -1.09375 0.4375q-0.421875 0.4375 -0.421875 1.40625l0 3.609375l-1.0625 0l0 -4.046875q0 -0.703125 -0.265625 -1.046875q-0.25 -0.359375 -0.828125 -0.359375q-0.453125 0 -0.828125 0.234375q-0.375 0.234375 -0.546875 0.6875q-0.171875 0.453125 -0.171875 1.296875l0 3.234375l-1.046875 0zm9.996094 0l0 -6.21875l0.9375 0l0 0.875q0.296875 -0.46875 0.78125 -0.734375q0.484375 -0.28125 1.109375 -0.28125q0.6875 0 1.125 0.28125q0.453125 0.28125 0.625 0.796875q0.75 -1.078125 1.921875 -1.078125q0.9375 0 1.421875 0.515625q0.5 0.5 0.5 1.578125l0 4.265625l-1.046875 0l0 -3.921875q0 -0.625 -0.109375 -0.90625q-0.09375 -0.28125 -0.359375 -0.453125q-0.265625 -0.171875 -0.640625 -0.171875q-0.65625 0 -1.09375 0.4375q-0.421875 0.4375 -0.421875 1.40625l0 3.609375l-1.0625 0l0 -4.046875q0 -0.703125 -0.265625 -1.046875q-0.25 -0.359375 -0.828125 -0.359375q-0.453125 0 -0.828125 0.234375q-0.375 0.234375 -0.546875 0.6875q-0.171875 0.453125 -0.171875 1.296875l0 3.234375l-1.046875 0zm9.949219 2.390625l-0.125 -0.984375q0.34375 0.09375 0.609375 0.09375q0.34375 0 0.546875 -0.125q0.21875 -0.109375 0.359375 -0.3125q0.09375 -0.171875 0.328125 -0.796875q0.015625 -0.078125 0.09375 -0.25l-2.375 -6.234375l1.140625 0l1.296875 3.59375q0.25 0.6875 0.453125 1.453125q0.1875 -0.734375 0.4375 -1.421875l1.328125 -3.625l1.046875 0l-2.359375 6.328125q-0.390625 1.015625 -0.59375 1.40625q-0.28125 0.53125 -0.65625 0.765625q-0.359375 0.25 -0.859375 0.25q-0.296875 0 -0.671875 -0.140625zm12.3125 -5.40625l1.125 0.296875q-0.359375 1.390625 -1.28125 2.125q-0.921875 0.734375 -2.265625 0.734375q-1.390625 0 -2.265625 -0.5625q-0.875 -0.5625 -1.328125 -1.625q-0.453125 -1.078125 -0.453125 -2.3125q0 -1.34375 0.515625 -2.34375q0.515625 -1.0 1.453125 -1.515625q0.953125 -0.515625 2.09375 -0.515625q1.28125 0 2.15625 0.65625q0.890625 0.65625 1.234375 1.84375l-1.125 0.265625q-0.296875 -0.9375 -0.875 -1.359375q-0.5625 -0.4375 -1.421875 -0.4375q-0.984375 0 -1.65625 0.484375q-0.65625 0.46875 -0.9375 1.265625q-0.265625 0.796875 -0.265625 1.65625q0 1.09375 0.3125 1.90625q0.328125 0.8125 1.0 1.21875q0.671875 0.40625 1.46875 0.40625q0.953125 0 1.609375 -0.546875q0.671875 -0.546875 0.90625 -1.640625zm2.0097656 -0.09375q0 -1.734375 0.953125 -2.5625q0.796875 -0.6875 1.953125 -0.6875q1.28125 0 2.09375 0.84375q0.828125 0.828125 0.828125 2.3125q0 1.203125 -0.359375 1.890625q-0.359375 0.6875 -1.0625 1.078125q-0.6875 0.375 -1.5 0.375q-1.296875 0 -2.109375 -0.828125q-0.796875 -0.84375 -0.796875 -2.421875zm1.078125 0q0 1.1875 0.515625 1.78125q0.53125 0.59375 1.3125 0.59375q0.796875 0 1.3125 -0.59375q0.515625 -0.59375 0.515625 -1.8125q0 -1.15625 -0.53125 -1.75q-0.515625 -0.59375 -1.296875 -0.59375q-0.78125 0 -1.3125 0.59375q-0.515625 0.578125 -0.515625 1.78125zm5.955078 3.109375l0 -8.59375l1.0625 0l0 8.59375l-1.0625 0zm2.6660156 0l0 -8.59375l1.0625 0l0 8.59375l-1.0625 0zm6.9472656 -2.0l1.09375 0.125q-0.25 0.953125 -0.953125 1.484375q-0.703125 0.53125 -1.78125 0.53125q-1.359375 0 -2.171875 -0.84375q-0.796875 -0.84375 -0.796875 -2.359375q0 -1.5625 0.8125 -2.421875q0.8125 -0.875 2.09375 -0.875q1.25 0 2.03125 0.84375q0.796875 0.84375 0.796875 2.390625q0 0.09375 0 0.28125l-4.640625 0q0.0625 1.03125 0.578125 1.578125q0.515625 0.53125 1.296875 0.53125q0.578125 0 0.984375 -0.296875q0.421875 -0.3125 0.65625 -0.96875zm-3.453125 -1.703125l3.46875 0q-0.0625 -0.796875 -0.390625 -1.1875q-0.515625 -0.609375 -1.3125 -0.609375q-0.734375 0 -1.234375 0.484375q-0.484375 0.484375 -0.53125 1.3125zm9.939453 1.421875l1.03125 0.140625q-0.171875 1.0625 -0.875 1.671875q-0.703125 0.609375 -1.71875 0.609375q-1.28125 0 -2.0625 -0.828125q-0.765625 -0.84375 -0.765625 -2.40625q0 -1.0 0.328125 -1.75q0.34375 -0.765625 1.015625 -1.140625q0.6875 -0.375 1.5 -0.375q1.0 0 1.640625 0.515625q0.65625 0.5 0.84375 1.453125l-1.03125 0.15625q-0.140625 -0.625 -0.515625 -0.9375q-0.375 -0.328125 -0.90625 -0.328125q-0.796875 0 -1.296875 0.578125q-0.5 0.5625 -0.5 1.796875q0 1.265625 0.484375 1.828125q0.484375 0.5625 1.25 0.5625q0.625 0 1.03125 -0.375q0.421875 -0.375 0.546875 -1.171875zm4.234375 1.34375l0.15625 0.921875q-0.453125 0.09375 -0.796875 0.09375q-0.578125 0 -0.890625 -0.171875q-0.3125 -0.1875 -0.453125 -0.484375q-0.125 -0.296875 -0.125 -1.25l0 -3.578125l-0.765625 0l0 -0.8125l0.765625 0l0 -1.546875l1.046875 -0.625l0 2.171875l1.0625 0l0 0.8125l-1.0625 0l0 3.640625q0 0.453125 0.046875 0.578125q0.0625 0.125 0.1875 0.203125q0.125 0.078125 0.359375 0.078125q0.1875 0 0.46875 -0.03125zm0.6464844 -2.171875q0 -1.734375 0.953125 -2.5625q0.796875 -0.6875 1.953125 -0.6875q1.28125 0 2.09375 0.84375q0.828125 0.828125 0.828125 2.3125q0 1.203125 -0.359375 1.890625q-0.359375 0.6875 -1.0625 1.078125q-0.6875 0.375 -1.5 0.375q-1.296875 0 -2.109375 -0.828125q-0.796875 -0.84375 -0.796875 -2.421875zm1.078125 0q0 1.1875 0.515625 1.78125q0.53125 0.59375 1.3125 0.59375q0.796875 0 1.3125 -0.59375q0.515625 -0.59375 0.515625 -1.8125q0 -1.15625 -0.53125 -1.75q-0.515625 -0.59375 -1.296875 -0.59375q-0.78125 0 -1.3125 0.59375q-0.515625 0.578125 -0.515625 1.78125zm5.970703 3.109375l0 -6.21875l0.953125 0l0 0.9375q0.359375 -0.65625 0.65625 -0.859375q0.3125 -0.21875 0.6875 -0.21875q0.53125 0 1.078125 0.328125l-0.359375 0.984375q-0.390625 -0.234375 -0.765625 -0.234375q-0.359375 0 -0.640625 0.21875q-0.265625 0.203125 -0.375 0.578125q-0.1875 0.5625 -0.1875 1.21875l0 3.265625l-1.046875 0z" fill-rule="nonzero"/><path fill="#d5a6bd" d="m92.94722 208.61176l0 0c0 -5.8853455 4.7710266 -10.656372 10.656387 -10.656372l109.04944 0c2.8262482 0 5.536743 1.1227264 7.535202 3.1211853c1.9984589 1.9984589 3.1211853 4.7089386 3.1211853 7.535187l0 42.624252c0 5.8853607 -4.7710266 10.656387 -10.656387 10.656387l-109.04944 0l0 0c-5.8853607 0 -10.656387 -4.7710266 -10.656387 -10.656387z" fill-rule="evenodd"/><path stroke="#000000" stroke-width="1.0" stroke-linejoin="round" stroke-linecap="butt" stroke-dasharray="4.0,3.0" d="m92.94722 208.61176l0 0c0 -5.8853455 4.7710266 -10.656372 10.656387 -10.656372l109.04944 0c2.8262482 0 5.536743 1.1227264 7.535202 3.1211853c1.9984589 1.9984589 3.1211853 4.7089386 3.1211853 7.535187l0 42.624252c0 5.8853607 -4.7710266 10.656387 -10.656387 10.656387l-109.04944 0l0 0c-5.8853607 0 -10.656387 -4.7710266 -10.656387 -10.656387z" fill-rule="evenodd"/><path fill="#000000" d="m122.70157 234.44388l0 -8.59375l2.96875 0q1.0 0 1.53125 0.125q0.734375 0.171875 1.25 0.609375q0.6875 0.578125 1.015625 1.484375q0.34375 0.890625 0.34375 2.03125q0 0.984375 -0.234375 1.734375q-0.21875 0.75 -0.578125 1.25q-0.359375 0.5 -0.796875 0.78125q-0.421875 0.28125 -1.015625 0.4375q-0.59375 0.140625 -1.375 0.140625l-3.109375 0zm1.140625 -1.015625l1.828125 0q0.859375 0 1.34375 -0.15625q0.484375 -0.15625 0.765625 -0.453125q0.40625 -0.390625 0.625 -1.078125q0.234375 -0.6875 0.234375 -1.65625q0 -1.34375 -0.453125 -2.0625q-0.4375 -0.734375 -1.0625 -0.984375q-0.46875 -0.171875 -1.46875 -0.171875l-1.8125 0l0 6.5625zm11.462891 0.25q-0.59375 0.5 -1.140625 0.703125q-0.53125 0.203125 -1.15625 0.203125q-1.03125 0 -1.578125 -0.5q-0.546875 -0.5 -0.546875 -1.28125q0 -0.453125 0.203125 -0.828125q0.203125 -0.390625 0.546875 -0.609375q0.34375 -0.234375 0.765625 -0.34375q0.296875 -0.09375 0.9375 -0.171875q1.265625 -0.140625 1.875 -0.359375q0 -0.21875 0 -0.265625q0 -0.65625 -0.296875 -0.921875q-0.40625 -0.34375 -1.203125 -0.34375q-0.734375 0 -1.09375 0.265625q-0.359375 0.25 -0.53125 0.90625l-1.03125 -0.140625q0.140625 -0.65625 0.46875 -1.0625q0.328125 -0.40625 0.9375 -0.625q0.609375 -0.21875 1.40625 -0.21875q0.796875 0 1.296875 0.1875q0.5 0.1875 0.734375 0.46875q0.234375 0.28125 0.328125 0.71875q0.046875 0.265625 0.046875 0.96875l0 1.40625q0 1.46875 0.0625 1.859375q0.078125 0.390625 0.28125 0.75l-1.109375 0q-0.15625 -0.328125 -0.203125 -0.765625zm-0.09375 -2.359375q-0.578125 0.234375 -1.71875 0.40625q-0.65625 0.09375 -0.921875 0.21875q-0.265625 0.109375 -0.421875 0.328125q-0.140625 0.21875 -0.140625 0.5q0 0.421875 0.3125 0.703125q0.328125 0.28125 0.9375 0.28125q0.609375 0 1.078125 -0.265625q0.484375 -0.265625 0.703125 -0.734375q0.171875 -0.359375 0.171875 -1.046875l0 -0.390625zm5.001953 2.1875l0.15625 0.921875q-0.453125 0.09375 -0.796875 0.09375q-0.578125 0 -0.890625 -0.171875q-0.3125 -0.1875 -0.453125 -0.484375q-0.125 -0.296875 -0.125 -1.25l0 -3.578125l-0.765625 0l0 -0.8125l0.765625 0l0 -1.546875l1.046875 -0.625l0 2.171875l1.0625 0l0 0.8125l-1.0625 0l0 3.640625q0 0.453125 0.046875 0.578125q0.0625 0.125 0.1875 0.203125q0.125 0.078125 0.359375 0.078125q0.1875 0 0.46875 -0.03125zm5.0996094 0.171875q-0.59375 0.5 -1.140625 0.703125q-0.53125 0.203125 -1.15625 0.203125q-1.03125 0 -1.578125 -0.5q-0.546875 -0.5 -0.546875 -1.28125q0 -0.453125 0.203125 -0.828125q0.203125 -0.390625 0.546875 -0.609375q0.34375 -0.234375 0.765625 -0.34375q0.296875 -0.09375 0.9375 -0.171875q1.265625 -0.140625 1.875 -0.359375q0 -0.21875 0 -0.265625q0 -0.65625 -0.296875 -0.921875q-0.40625 -0.34375 -1.203125 -0.34375q-0.734375 0 -1.09375 0.265625q-0.359375 0.25 -0.53125 0.90625l-1.03125 -0.140625q0.140625 -0.65625 0.46875 -1.0625q0.328125 -0.40625 0.9375 -0.625q0.609375 -0.21875 1.40625 -0.21875q0.796875 0 1.296875 0.1875q0.5 0.1875 0.734375 0.46875q0.234375 0.28125 0.328125 0.71875q0.046875 0.265625 0.046875 0.96875l0 1.40625q0 1.46875 0.0625 1.859375q0.078125 0.390625 0.28125 0.75l-1.109375 0q-0.15625 -0.328125 -0.203125 -0.765625zm-0.09375 -2.359375q-0.578125 0.234375 -1.71875 0.40625q-0.65625 0.09375 -0.921875 0.21875q-0.265625 0.109375 -0.421875 0.328125q-0.140625 0.21875 -0.140625 0.5q0 0.421875 0.3125 0.703125q0.328125 0.28125 0.9375 0.28125q0.609375 0 1.078125 -0.265625q0.484375 -0.265625 0.703125 -0.734375q0.171875 -0.359375 0.171875 -1.046875l0 -0.390625zm8.970703 0.109375l1.125 0.296875q-0.359375 1.390625 -1.28125 2.125q-0.921875 0.734375 -2.265625 0.734375q-1.390625 0 -2.265625 -0.5625q-0.875 -0.5625 -1.328125 -1.625q-0.453125 -1.078125 -0.453125 -2.3125q0 -1.34375 0.515625 -2.34375q0.515625 -1.0 1.453125 -1.515625q0.953125 -0.515625 2.09375 -0.515625q1.28125 0 2.15625 0.65625q0.890625 0.65625 1.234375 1.84375l-1.125 0.265625q-0.296875 -0.9375 -0.875 -1.359375q-0.5625 -0.4375 -1.421875 -0.4375q-0.984375 0 -1.65625 0.484375q-0.65625 0.46875 -0.9375 1.265625q-0.265625 0.796875 -0.265625 1.65625q0 1.09375 0.3125 1.90625q0.328125 0.8125 1.0 1.21875q0.671875 0.40625 1.46875 0.40625q0.953125 0 1.609375 -0.546875q0.671875 -0.546875 0.90625 -1.640625zm2.0097656 -0.09375q0 -1.734375 0.953125 -2.5625q0.796875 -0.6875 1.953125 -0.6875q1.28125 0 2.09375 0.84375q0.828125 0.828125 0.828125 2.3125q0 1.203125 -0.359375 1.890625q-0.359375 0.6875 -1.0625 1.078125q-0.6875 0.375 -1.5 0.375q-1.296875 0 -2.109375 -0.828125q-0.796875 -0.84375 -0.796875 -2.421875zm1.078125 0q0 1.1875 0.515625 1.78125q0.53125 0.59375 1.3125 0.59375q0.796875 0 1.3125 -0.59375q0.515625 -0.59375 0.515625 -1.8125q0 -1.15625 -0.53125 -1.75q-0.515625 -0.59375 -1.296875 -0.59375q-0.78125 0 -1.3125 0.59375q-0.515625 0.578125 -0.515625 1.78125zm5.955078 3.109375l0 -8.59375l1.0625 0l0 8.59375l-1.0625 0zm2.6660156 0l0 -8.59375l1.0625 0l0 8.59375l-1.0625 0zm6.9472656 -2.0l1.09375 0.125q-0.25 0.953125 -0.953125 1.484375q-0.703125 0.53125 -1.78125 0.53125q-1.359375 0 -2.171875 -0.84375q-0.796875 -0.84375 -0.796875 -2.359375q0 -1.5625 0.8125 -2.421875q0.8125 -0.875 2.09375 -0.875q1.25 0 2.03125 0.84375q0.796875 0.84375 0.796875 2.390625q0 0.09375 0 0.28125l-4.640625 0q0.0625 1.03125 0.578125 1.578125q0.515625 0.53125 1.296875 0.53125q0.578125 0 0.984375 -0.296875q0.421875 -0.3125 0.65625 -0.96875zm-3.453125 -1.703125l3.46875 0q-0.0625 -0.796875 -0.390625 -1.1875q-0.515625 -0.609375 -1.3125 -0.609375q-0.734375 0 -1.234375 0.484375q-0.484375 0.484375 -0.53125 1.3125zm9.939453 1.421875l1.03125 0.140625q-0.171875 1.0625 -0.875 1.671875q-0.703125 0.609375 -1.71875 0.609375q-1.28125 0 -2.0625 -0.828125q-0.765625 -0.84375 -0.765625 -2.40625q0 -1.0 0.328125 -1.75q0.34375 -0.765625 1.015625 -1.140625q0.6875 -0.375 1.5 -0.375q1.0 0 1.640625 0.515625q0.65625 0.5 0.84375 1.453125l-1.03125 0.15625q-0.140625 -0.625 -0.515625 -0.9375q-0.375 -0.328125 -0.90625 -0.328125q-0.796875 0 -1.296875 0.578125q-0.5 0.5625 -0.5 1.796875q0 1.265625 0.484375 1.828125q0.484375 0.5625 1.25 0.5625q0.625 0 1.03125 -0.375q0.421875 -0.375 0.546875 -1.171875zm4.234375 1.34375l0.15625 0.921875q-0.453125 0.09375 -0.796875 0.09375q-0.578125 0 -0.890625 -0.171875q-0.3125 -0.1875 -0.453125 -0.484375q-0.125 -0.296875 -0.125 -1.25l0 -3.578125l-0.765625 0l0 -0.8125l0.765625 0l0 -1.546875l1.046875 -0.625l0 2.171875l1.0625 0l0 0.8125l-1.0625 0l0 3.640625q0 0.453125 0.046875 0.578125q0.0625 0.125 0.1875 0.203125q0.125 0.078125 0.359375 0.078125q0.1875 0 0.46875 -0.03125zm0.6464844 -2.171875q0 -1.734375 0.953125 -2.5625q0.796875 -0.6875 1.953125 -0.6875q1.28125 0 2.09375 0.84375q0.828125 0.828125 0.828125 2.3125q0 1.203125 -0.359375 1.890625q-0.359375 0.6875 -1.0625 1.078125q-0.6875 0.375 -1.5 0.375q-1.296875 0 -2.109375 -0.828125q-0.796875 -0.84375 -0.796875 -2.421875zm1.078125 0q0 1.1875 0.515625 1.78125q0.53125 0.59375 1.3125 0.59375q0.796875 0 1.3125 -0.59375q0.515625 -0.59375 0.515625 -1.8125q0 -1.15625 -0.53125 -1.75q-0.515625 -0.59375 -1.296875 -0.59375q-0.78125 0 -1.3125 0.59375q-0.515625 0.578125 -0.515625 1.78125zm5.970703 3.109375l0 -6.21875l0.953125 0l0 0.9375q0.359375 -0.65625 0.65625 -0.859375q0.3125 -0.21875 0.6875 -0.21875q0.53125 0 1.078125 0.328125l-0.359375 0.984375q-0.390625 -0.234375 -0.765625 -0.234375q-0.359375 0 -0.640625 0.21875q-0.265625 0.203125 -0.375 0.578125q-0.1875 0.5625 -0.1875 1.21875l0 3.265625l-1.046875 0z" fill-rule="nonzero"/><path fill="#000000" fill-opacity="0.0" d="m95.17585 354.9029l290.29922 -79.68506" fill-rule="evenodd"/><path stroke="#000000" stroke-width="1.0" stroke-linejoin="round" stroke-linecap="butt" d="m98.4807 353.99573l286.9944 -78.77789" fill-rule="evenodd"/><path fill="#000000" stroke="#000000" stroke-width="1.0" stroke-linecap="butt" d="m98.4807 353.99573l0.78678894 -1.3821411l-2.6818771 1.9023438l3.277237 0.26660156z" fill-rule="evenodd"/><path fill="#000000" fill-opacity="0.0" d="m207.30939 354.9029l178.17322 -79.68506" fill-rule="evenodd"/><path stroke="#000000" stroke-width="1.0" stroke-linejoin="round" stroke-linecap="butt" d="m210.43785 353.50372l175.04475 -78.28589" fill-rule="evenodd"/><path fill="#000000" stroke="#000000" stroke-width="1.0" stroke-linecap="butt" d="m210.43785 353.50372l0.5674591 -1.4857178l-2.3614044 2.2880554l3.279663 -0.23486328z" fill-rule="evenodd"/><path fill="#000000" fill-opacity="0.0" d="m326.38852 354.9029l59.08661 -79.68506" fill-rule="evenodd"/><path stroke="#000000" stroke-width="1.0" stroke-linejoin="round" stroke-linecap="butt" d="m328.42978 352.15002l57.04538 -76.93219" fill-rule="evenodd"/><path fill="#000000" stroke="#000000" stroke-width="1.0" stroke-linecap="butt" d="m328.42975 352.15002l-0.23348999 -1.5731506l-0.9370117 3.1517334l2.7436829 -1.8120728z" fill-rule="evenodd"/><path fill="#000000" fill-opacity="0.0" d="m457.5619 354.9029l-72.09448 -79.68506" fill-rule="evenodd"/><path stroke="#000000" stroke-width="1.0" stroke-linejoin="round" stroke-linecap="butt" d="m455.26263 352.36154l-69.79523 -77.14371" fill-rule="evenodd"/><path fill="#000000" stroke="#000000" stroke-width="1.0" stroke-linecap="butt" d="m455.26263 352.36154l-1.5884094 -0.079437256l2.9068604 1.5367126l-1.2390137 -3.0456848z" fill-rule="evenodd"/><path fill="#000000" fill-opacity="0.0" d="m590.656 354.9029l-205.19684 -79.68506" fill-rule="evenodd"/><path stroke="#000000" stroke-width="1.0" stroke-linejoin="round" stroke-linecap="butt" d="m587.46136 353.6623l-202.00217 -78.44446" fill-rule="evenodd"/><path fill="#000000" stroke="#000000" stroke-width="1.0" stroke-linecap="butt" d="m587.46136 353.6623l-1.4553833 0.64120483l3.2872925 0.07019043l-2.4730835 -2.166809z" fill-rule="evenodd"/><path fill="#000000" fill-opacity="0.0" d="m711.8439 354.9029l-326.3622 -79.68506" fill-rule="evenodd"/><path stroke="#000000" stroke-width="1.0" stroke-linejoin="round" stroke-linecap="butt" d="m708.5145 354.09003l-323.03287 -78.87219" fill-rule="evenodd"/><path fill="#000000" stroke="#000000" stroke-width="1.0" stroke-linecap="butt" d="m708.5145 354.09l-1.3591919 0.8257446l3.2683105 -0.35961914l-2.7348633 -1.8253479z" fill-rule="evenodd"/><path fill="#000000" fill-opacity="0.0" d="m385.48032 178.80577l0 31.181107" fill-rule="evenodd"/><path stroke="#000000" stroke-width="1.0" stroke-linejoin="round" stroke-linecap="butt" d="m385.48032 178.80577l0 27.754028" fill-rule="evenodd"/><path fill="#000000" stroke="#000000" stroke-width="1.0" stroke-linecap="butt" d="m385.48032 206.55978l-1.1245728 -1.1245728l1.1245728 3.0897675l1.1245728 -3.0897675z" fill-rule="evenodd"/><path fill="#000000" fill-opacity="0.0" d="m385.4672 275.2152l0 -25.354324" fill-rule="evenodd"/><path stroke="#000000" stroke-width="1.0" stroke-linejoin="round" stroke-linecap="butt" d="m385.4672 271.78815l0 -21.927261" fill-rule="evenodd"/><path fill="#000000" stroke="#000000" stroke-width="1.0" stroke-linecap="butt" d="m385.4672 271.78815l-1.1245728 -1.1246033l1.1245728 3.0897827l1.1245728 -3.0897827z" fill-rule="evenodd"/><path fill="#000000" fill-opacity="0.0" d="m223.30943 137.95538l121.85826 91.968506" fill-rule="evenodd"/><path stroke="#000000" stroke-width="1.0" stroke-linejoin="round" stroke-linecap="butt" d="m226.04489 140.01988l119.1228 89.90401" fill-rule="evenodd"/><path fill="#000000" stroke="#000000" stroke-width="1.0" stroke-linecap="butt" d="m226.04489 140.01988l1.5750885 -0.22016907l-3.1436768 -0.9636688l1.7887573 2.7589264z" fill-rule="evenodd"/><path fill="#000000" fill-opacity="0.0" d="m223.30943 229.92389l121.85826 0" fill-rule="evenodd"/><path stroke="#000000" stroke-width="1.0" stroke-linejoin="round" stroke-linecap="butt" d="m226.73651 229.92389l118.43118 0" fill-rule="evenodd"/><path fill="#000000" stroke="#000000" stroke-width="1.0" stroke-linecap="butt" d="m226.73651 229.92389l1.124588 -1.124588l-3.0897675 1.124588l3.0897675 1.1245728z" fill-rule="evenodd"/><path fill="#000000" fill-opacity="0.0" d="m711.8439 354.9029l0 -201.13387l-256.8819 0" fill-rule="evenodd"/><path stroke="#000000" stroke-width="1.0" stroke-linejoin="round" stroke-linecap="butt" d="m711.8438 354.9029l0 -201.13387l-253.45474 0" fill-rule="evenodd"/><path fill="#000000" stroke="#000000" stroke-width="1.0" stroke-linecap="butt" d="m458.38907 153.76903l1.1245728 -1.124588l-3.0897522 1.124588l3.0897522 1.124588z" fill-rule="evenodd"/><path fill="#000000" fill-opacity="0.0" d="m333.15222 71.59055l101.88977 0l0 38.771652l-101.88977 0z" fill-rule="evenodd"/><path fill="#000000" d="m343.37097 95.950554l0 -11.453125l1.5625 0l6.015625 8.984375l0 -8.984375l1.453125 0l0 11.453125l-1.5625 0l-6.015625 -9.0l0 9.0l-1.453125 0zm13.6953125 0l-3.15625 -8.296875l1.484375 0l1.78125 4.96875q0.296875 0.796875 0.53125 1.671875q0.1875 -0.65625 0.53125 -1.578125l1.84375 -5.0625l1.4375 0l-3.140625 8.296875l-1.3125 0zm5.703125 0l0 -8.296875l1.25 0l0 1.15625q0.390625 -0.609375 1.03125 -0.96875q0.65625 -0.375 1.484375 -0.375q0.921875 0 1.515625 0.390625q0.59375 0.375 0.828125 1.0625q0.984375 -1.453125 2.5625 -1.453125q1.234375 0 1.890625 0.6875q0.671875 0.671875 0.671875 2.09375l0 5.703125l-1.390625 0l0 -5.234375q0 -0.84375 -0.140625 -1.203125q-0.140625 -0.375 -0.5 -0.59375q-0.359375 -0.234375 -0.84375 -0.234375q-0.875 0 -1.453125 0.578125q-0.578125 0.578125 -0.578125 1.859375l0 4.828125l-1.40625 0l0 -5.390625q0 -0.9375 -0.34375 -1.40625q-0.34375 -0.46875 -1.125 -0.46875q-0.59375 0 -1.09375 0.3125q-0.5 0.3125 -0.734375 0.921875q-0.21875 0.59375 -0.21875 1.71875l0 4.3125l-1.40625 0zm19.0 -2.671875l1.453125 0.171875q-0.34375 1.28125 -1.28125 1.984375q-0.921875 0.703125 -2.359375 0.703125q-1.828125 0 -2.890625 -1.125q-1.0625 -1.125 -1.0625 -3.140625q0 -2.09375 1.078125 -3.25q1.078125 -1.15625 2.796875 -1.15625q1.65625 0 2.703125 1.140625q1.0625 1.125 1.0625 3.171875q0 0.125 0 0.375l-6.1875 0q0.078125 1.375 0.765625 2.109375q0.703125 0.71875 1.734375 0.71875q0.78125 0 1.328125 -0.40625q0.546875 -0.40625 0.859375 -1.296875zm-4.609375 -2.28125l4.625 0q-0.09375 -1.046875 -0.53125 -1.5625q-0.671875 -0.8125 -1.734375 -0.8125q-0.96875 0 -1.640625 0.65625q-0.65625 0.640625 -0.71875 1.71875zm7.3046875 0.796875q0 -2.296875 1.28125 -3.40625q1.078125 -0.921875 2.609375 -0.921875q1.71875 0 2.796875 1.125q1.09375 1.109375 1.09375 3.09375q0 1.59375 -0.484375 2.515625q-0.484375 0.921875 -1.40625 1.4375q-0.90625 0.5 -2.0 0.5q-1.734375 0 -2.8125 -1.109375q-1.078125 -1.125 -1.078125 -3.234375zm1.453125 0q0 1.59375 0.6875 2.390625q0.703125 0.796875 1.75 0.796875q1.046875 0 1.734375 -0.796875q0.703125 -0.796875 0.703125 -2.4375q0 -1.53125 -0.703125 -2.328125q-0.6875 -0.796875 -1.734375 -0.796875q-1.046875 0 -1.75 0.796875q-0.6875 0.78125 -0.6875 2.375zm8.3046875 4.15625l0 -7.203125l-1.234375 0l0 -1.09375l1.234375 0l0 -0.890625q0 -0.828125 0.15625 -1.234375q0.203125 -0.546875 0.703125 -0.890625q0.515625 -0.34375 1.4375 -0.34375q0.59375 0 1.3125 0.140625l-0.203125 1.234375q-0.4375 -0.078125 -0.828125 -0.078125q-0.640625 0 -0.90625 0.28125q-0.265625 0.265625 -0.265625 1.015625l0 0.765625l1.609375 0l0 1.09375l-1.609375 0l0 7.203125l-1.40625 0zm7.2109375 0l0 -10.109375l-3.78125 0l0 -1.34375l9.078125 0l0 1.34375l-3.78125 0l0 10.109375l-1.515625 0zm4.375 -4.15625q0 -2.296875 1.28125 -3.40625q1.078125 -0.921875 2.609375 -0.921875q1.71875 0 2.796875 1.125q1.09375 1.109375 1.09375 3.09375q0 1.59375 -0.484375 2.515625q-0.484375 0.921875 -1.40625 1.4375q-0.90625 0.5 -2.0 0.5q-1.734375 0 -2.8125 -1.109375q-1.078125 -1.125 -1.078125 -3.234375zm1.453125 0q0 1.59375 0.6875 2.390625q0.703125 0.796875 1.75 0.796875q1.046875 0 1.734375 -0.796875q0.703125 -0.796875 0.703125 -2.4375q0 -1.53125 -0.703125 -2.328125q-0.6875 -0.796875 -1.734375 -0.796875q-1.046875 0 -1.75 0.796875q-0.6875 0.78125 -0.6875 2.375zm7.9765625 7.34375l0 -11.484375l1.28125 0l0 1.078125q0.453125 -0.640625 1.015625 -0.953125q0.578125 -0.3125 1.390625 -0.3125q1.0625 0 1.875 0.546875q0.8125 0.546875 1.21875 1.546875q0.421875 0.984375 0.421875 2.171875q0 1.28125 -0.46875 2.296875q-0.453125 1.015625 -1.328125 1.5625q-0.859375 0.546875 -1.828125 0.546875q-0.703125 0 -1.265625 -0.296875q-0.546875 -0.296875 -0.90625 -0.75l0 4.046875l-1.40625 0zm1.265625 -7.296875q0 1.609375 0.640625 2.375q0.65625 0.765625 1.578125 0.765625q0.9375 0 1.609375 -0.796875q0.671875 -0.796875 0.671875 -2.453125q0 -1.59375 -0.65625 -2.375q-0.65625 -0.796875 -1.5625 -0.796875q-0.890625 0 -1.59375 0.84375q-0.6875 0.84375 -0.6875 2.4375z" fill-rule="nonzero"/></g></svg>